<svg width="514" height="48" viewBox="0 0 514 48" fill="none" xmlns="http://www.w3.org/2000/svg">
<path d="M0.5 46C0.5 45.3158 0.515004 44.635 0.544922 43.958C0.58149 43.1305 1.28194 42.4891 2.10938 42.5254C2.93699 42.562 3.57857 43.2632 3.54199 44.0908C3.51403 44.7236 3.5 45.3601 3.5 46C3.5 46.8284 2.82843 47.5 2 47.5C1.17157 47.5 0.5 46.8284 0.5 46ZM510.489 45.043L510.458 44.0908C510.421 43.2632 511.063 42.562 511.891 42.5254C512.666 42.4914 513.33 43.0528 513.44 43.8047L513.455 43.958C513.485 44.635 513.5 45.3158 513.5 46L513.492 46.1533C513.415 46.9097 512.777 47.5 512 47.5C511.172 47.5 510.5 46.8284 510.5 46C510.5 45.6801 510.496 45.3611 510.489 45.043ZM3.39062 30.0078C3.68184 29.2323 4.54671 28.8396 5.32227 29.1309C6.09759 29.4222 6.49039 30.2871 6.19922 31.0625C5.75457 32.2467 5.36072 33.4558 5.02148 34.6875C4.80152 35.4862 3.97545 35.9563 3.17676 35.7363C2.37828 35.5163 1.90914 34.6901 2.12891 33.8916C2.49232 32.5721 2.91427 31.2764 3.39062 30.0078ZM508.678 29.1309C509.405 28.8578 510.211 29.1857 510.549 29.8672L510.609 30.0078C510.967 30.9592 511.293 31.9258 511.587 32.9062L511.871 33.8916C512.091 34.6901 511.622 35.5163 510.823 35.7363C510.075 35.9425 509.301 35.5428 509.026 34.834L508.979 34.6875C508.724 33.7637 508.439 32.8525 508.125 31.9551L507.801 31.0625C507.51 30.2871 507.902 29.4222 508.678 29.1309ZM10.4258 17.6299C10.9427 16.9825 11.8868 16.8766 12.5342 17.3936C13.1814 17.9105 13.2873 18.8547 12.7705 19.502C11.9778 20.4947 11.228 21.5236 10.5254 22.5859C10.0684 23.2766 9.13813 23.4664 8.44727 23.0098C7.7563 22.5528 7.56643 21.6216 8.02344 20.9307C8.77555 19.7935 9.57744 18.6923 10.4258 17.6299ZM501.466 17.3936C502.073 16.9089 502.941 16.9715 503.473 17.5146L503.574 17.6299C504.423 18.6923 505.224 19.7935 505.977 20.9307C506.434 21.6216 506.244 22.5528 505.553 23.0098C504.905 23.438 504.047 23.2976 503.565 22.709L503.475 22.5859C502.948 21.7892 502.394 21.0109 501.816 20.2529L501.229 19.502C500.713 18.8546 500.819 17.9105 501.466 17.3936ZM20.9307 8.02344C21.6216 7.56643 22.5528 7.7563 23.0098 8.44727C23.4664 9.13813 23.2766 10.0684 22.5859 10.5254C21.5236 11.228 20.4947 11.9778 19.502 12.7705C18.8547 13.2873 17.9105 13.1814 17.3936 12.5342C16.8766 11.8868 16.9825 10.9427 17.6299 10.4258C18.6923 9.57744 19.7935 8.77555 20.9307 8.02344ZM490.99 8.44727C491.419 7.79959 492.263 7.59235 492.937 7.94531L493.069 8.02344C493.922 8.58752 494.755 9.1792 495.566 9.79785L496.37 10.4258C497.017 10.9427 497.123 11.8868 496.606 12.5342C496.122 13.141 495.262 13.2714 494.623 12.8594L494.498 12.7705C493.505 11.9778 492.476 11.228 491.414 10.5254C490.723 10.0684 490.534 9.13814 490.99 8.44727ZM33.8916 2.12891C34.6901 1.90914 35.5163 2.37828 35.7363 3.17676C35.9563 3.97545 35.4862 4.80152 34.6875 5.02148C33.4558 5.36072 32.2467 5.75457 31.0625 6.19922C30.2871 6.49039 29.4222 6.09759 29.1309 5.32227C28.8396 4.54671 29.2323 3.68184 30.0078 3.39062C31.2764 2.91427 32.5721 2.49232 33.8916 2.12891ZM478.264 3.17676C478.484 2.37828 479.31 1.90913 480.108 2.12891C481.098 2.40151 482.075 2.70738 483.036 3.04395L483.992 3.39062C484.768 3.68184 485.16 4.54671 484.869 5.32227C484.596 6.04921 483.819 6.43921 483.084 6.24512L482.938 6.19922C481.753 5.75451 480.543 5.36075 479.312 5.02148C478.513 4.80133 478.044 3.9753 478.264 3.17676ZM48.0098 0.5L48.1631 0.507812C48.9194 0.584718 49.5098 1.22342 49.5098 2C49.5098 2.82835 48.8381 3.49987 48.0098 3.5H46C45.3601 3.5 44.7236 3.51403 44.0908 3.54199C43.2632 3.57857 42.562 2.93699 42.5254 2.10938C42.4891 1.28194 43.1305 0.581494 43.958 0.544922C44.635 0.515004 45.3158 0.5 46 0.5H48.0098ZM468 0.5C468.342 0.5 468.683 0.504204 469.023 0.511719L470.042 0.544922L470.195 0.55957C470.947 0.669892 471.509 1.33383 471.475 2.10938C471.438 2.93699 470.737 3.57857 469.909 3.54199C469.593 3.52801 469.275 3.51777 468.957 3.51074L468 3.5H465.99C465.162 3.49998 464.49 2.82842 464.49 2C464.49 1.17158 465.162 0.500016 465.99 0.5H468ZM62.0762 0.5C62.9046 0.5 63.5762 1.17157 63.5762 2C63.5762 2.82843 62.9046 3.5 62.0762 3.5H58.0576C57.2292 3.5 56.5576 2.82843 56.5576 2C56.5576 1.17157 57.2292 0.5 58.0576 0.5H62.0762ZM76.1426 0.5C76.971 0.5 77.6426 1.17157 77.6426 2C77.6426 2.82843 76.971 3.5 76.1426 3.5H72.124C71.2956 3.5 70.624 2.82843 70.624 2C70.624 1.17157 71.2956 0.5 72.124 0.5H76.1426ZM90.21 0.5C91.0382 0.500239 91.71 1.17172 91.71 2C91.71 2.82828 91.0382 3.49976 90.21 3.5H86.1904C85.362 3.49998 84.6904 2.82841 84.6904 2C84.6904 1.17159 85.362 0.500025 86.1904 0.5H90.21ZM104.276 0.5L104.43 0.507812C105.186 0.584693 105.776 1.2234 105.776 2C105.776 2.82837 105.105 3.4999 104.276 3.5H100.257C99.4285 3.49984 98.7568 2.82833 98.7568 2C98.7568 1.17167 99.4285 0.500165 100.257 0.5H104.276ZM118.343 0.5C119.171 0.5 119.843 1.17157 119.843 2C119.843 2.82843 119.171 3.5 118.343 3.5H114.324C113.496 3.5 112.824 2.82843 112.824 2C112.824 1.17157 113.496 0.5 114.324 0.5H118.343ZM132.409 0.5C133.238 0.5 133.909 1.17157 133.909 2C133.909 2.82843 133.238 3.5 132.409 3.5H128.391C127.562 3.5 126.891 2.82843 126.891 2C126.891 1.17157 127.562 0.5 128.391 0.5H132.409ZM146.477 0.5C147.305 0.500206 147.977 1.1717 147.977 2C147.977 2.8283 147.305 3.49979 146.477 3.5H142.457C141.629 3.49994 140.957 2.82839 140.957 2C140.957 1.17161 141.629 0.500058 142.457 0.5H146.477ZM160.543 0.5L160.696 0.507812C161.453 0.584665 162.043 1.22338 162.043 2C162.043 2.82839 161.371 3.49993 160.543 3.5H156.523C155.695 3.4998 155.023 2.82831 155.023 2C155.023 1.17169 155.695 0.500198 156.523 0.5H160.543ZM174.609 0.5C175.438 0.5 176.109 1.17157 176.109 2C176.109 2.82843 175.438 3.5 174.609 3.5H170.591C169.762 3.5 169.091 2.82843 169.091 2C169.091 1.17157 169.762 0.5 170.591 0.5H174.609ZM188.676 0.5C189.504 0.5 190.176 1.17157 190.176 2C190.176 2.82843 189.504 3.5 188.676 3.5H184.657C183.829 3.5 183.157 2.82843 183.157 2C183.157 1.17157 183.829 0.5 184.657 0.5H188.676ZM202.743 0.5L202.896 0.507812C203.653 0.58475 204.243 1.22344 204.243 2C204.243 2.82833 203.571 3.49984 202.743 3.5H198.724C197.895 3.49991 197.224 2.82837 197.224 2C197.224 1.17163 197.895 0.500091 198.724 0.5H202.743ZM216.81 0.5L216.963 0.507812C217.719 0.584637 218.31 1.22336 218.31 2C218.31 2.82841 217.638 3.49997 216.81 3.5H212.79C211.962 3.49977 211.29 2.82828 211.29 2C211.29 1.17172 211.962 0.500231 212.79 0.5H216.81ZM230.876 0.5C231.704 0.5 232.376 1.17157 232.376 2C232.376 2.82843 231.704 3.5 230.876 3.5H226.857C226.029 3.5 225.357 2.82843 225.357 2C225.357 1.17157 226.029 0.5 226.857 0.5H230.876ZM244.942 0.5C245.771 0.5 246.442 1.17157 246.442 2C246.442 2.82843 245.771 3.5 244.942 3.5H240.924C240.095 3.5 239.424 2.82843 239.424 2C239.424 1.17157 240.095 0.5 240.924 0.5H244.942ZM259.01 0.5L259.163 0.507812C259.919 0.584735 260.51 1.22343 260.51 2C260.51 2.82834 259.838 3.49985 259.01 3.5H254.99C254.162 3.49988 253.49 2.82835 253.49 2C253.49 1.17165 254.162 0.500124 254.99 0.5H259.01ZM273.076 0.5C273.905 0.5 274.576 1.17157 274.576 2C274.576 2.82843 273.905 3.5 273.076 3.5H269.058C268.229 3.5 267.558 2.82843 267.558 2C267.558 1.17157 268.229 0.5 269.058 0.5H273.076ZM287.143 0.5C287.971 0.5 288.643 1.17157 288.643 2C288.643 2.82843 287.971 3.5 287.143 3.5H283.124C282.296 3.5 281.624 2.82843 281.624 2C281.624 1.17157 282.296 0.5 283.124 0.5H287.143ZM301.21 0.5C302.038 0.500247 302.71 1.17173 302.71 2C302.71 2.82827 302.038 3.49975 301.21 3.5H297.19C296.362 3.49998 295.69 2.82842 295.69 2C295.69 1.17158 296.362 0.500016 297.19 0.5H301.21ZM315.276 0.5L315.43 0.507812C316.186 0.584707 316.776 1.22341 316.776 2C316.776 2.82836 316.105 3.49988 315.276 3.5H311.257C310.429 3.49985 309.757 2.82834 309.757 2C309.757 1.17166 310.429 0.500148 311.257 0.5H315.276ZM329.343 0.5C330.171 0.5 330.843 1.17157 330.843 2C330.843 2.82843 330.171 3.5 329.343 3.5H325.324C324.496 3.5 323.824 2.82843 323.824 2C323.824 1.17157 324.496 0.5 325.324 0.5H329.343ZM343.409 0.5C344.238 0.5 344.909 1.17157 344.909 2C344.909 2.82843 344.238 3.5 343.409 3.5H339.391C338.562 3.5 337.891 2.82843 337.891 2C337.891 1.17157 338.562 0.5 339.391 0.5H343.409ZM357.477 0.5L357.63 0.507812C358.386 0.584818 358.977 1.22349 358.977 2C358.977 2.82827 358.305 3.49975 357.477 3.5H353.457C352.629 3.49998 351.957 2.82842 351.957 2C351.957 1.17158 352.629 0.500016 353.457 0.5H357.477ZM371.543 0.5C372.371 0.500115 373.043 1.17164 373.043 2C373.043 2.82836 372.371 3.49988 371.543 3.5H367.523C366.695 3.49985 366.023 2.82834 366.023 2C366.023 1.17166 366.695 0.500148 367.523 0.5H371.543ZM385.609 0.5C386.438 0.5 387.109 1.17157 387.109 2C387.109 2.82843 386.438 3.5 385.609 3.5H381.591C380.762 3.5 380.091 2.82843 380.091 2C380.091 1.17157 380.762 0.5 381.591 0.5H385.609ZM399.676 0.5C400.504 0.5 401.176 1.17157 401.176 2C401.176 2.82843 400.504 3.5 399.676 3.5H395.657C394.829 3.5 394.157 2.82843 394.157 2C394.157 1.17157 394.829 0.5 395.657 0.5H399.676ZM413.743 0.5C414.571 0.500247 415.243 1.17173 415.243 2C415.243 2.82827 414.571 3.49975 413.743 3.5H409.724C408.895 3.49998 408.224 2.82842 408.224 2C408.224 1.17158 408.895 0.500016 409.724 0.5H413.743ZM427.81 0.5L427.963 0.507812C428.719 0.584707 429.31 1.22341 429.31 2C429.31 2.82836 428.638 3.49988 427.81 3.5H423.79C422.962 3.49985 422.29 2.82834 422.29 2C422.29 1.17166 422.962 0.500148 423.79 0.5H427.81ZM441.876 0.5C442.704 0.5 443.376 1.17157 443.376 2C443.376 2.82843 442.704 3.5 441.876 3.5H437.857C437.029 3.5 436.357 2.82843 436.357 2C436.357 1.17157 437.029 0.5 437.857 0.5H441.876ZM455.942 0.5C456.771 0.5 457.442 1.17157 457.442 2C457.442 2.82843 456.771 3.5 455.942 3.5H451.924C451.095 3.5 450.424 2.82843 450.424 2C450.424 1.17157 451.095 0.5 451.924 0.5H455.942Z" fill="#E0E0E0"/>
</svg>
