<svg width="514" height="88" viewBox="0 0 514 88" fill="none" xmlns="http://www.w3.org/2000/svg">
<path id="Rectangle 54 (Stroke)" d="M2.10938 84.5254C2.93699 84.562 3.57857 85.2632 3.54199 86.0908C3.51403 86.7236 3.5 87.3601 3.5 88H0.5C0.5 87.3158 0.515004 86.635 0.544922 85.958C0.581489 85.1305 1.28194 84.4891 2.10938 84.5254ZM3.39062 72.0078C3.68184 71.2323 4.54671 70.8396 5.32227 71.1309C6.09759 71.4222 6.49039 72.2871 6.19922 73.0625C5.75457 74.2467 5.36072 75.4558 5.02148 76.6875C4.80152 77.4862 3.97545 77.9563 3.17676 77.7363C2.37829 77.5163 1.90914 76.6901 2.12891 75.8916C2.49232 74.5721 2.91427 73.2764 3.39062 72.0078ZM10.4258 59.6299C10.9427 58.9825 11.8868 58.8766 12.5342 59.3936C13.1814 59.9105 13.2873 60.8547 12.7705 61.502C11.9778 62.4947 11.228 63.5236 10.5254 64.5859C10.0684 65.2766 9.13813 65.4664 8.44727 65.0098C7.7563 64.5528 7.56643 63.6216 8.02344 62.9307C8.77555 61.7935 9.57744 60.6923 10.4258 59.6299ZM20.9307 50.0234C21.6216 49.5664 22.5528 49.7563 23.0098 50.4473C23.4664 51.1381 23.2766 52.0684 22.5859 52.5254C21.5236 53.228 20.4947 53.9778 19.502 54.7705C18.8547 55.2873 17.9105 55.1814 17.3936 54.5342C16.8766 53.8868 16.9825 52.9427 17.6299 52.4258C18.6923 51.5774 19.7935 50.7756 20.9307 50.0234ZM33.8916 44.1289C34.6901 43.9091 35.5163 44.3783 35.7363 45.1768C35.9563 45.9754 35.4862 46.8015 34.6875 47.0215C33.4558 47.3607 32.2467 47.7546 31.0625 48.1992C30.2871 48.4904 29.4222 48.0976 29.1309 47.3223C28.8396 46.5467 29.2323 45.6818 30.0078 45.3906C31.2764 44.9143 32.5721 44.4923 33.8916 44.1289ZM48.0098 42.5L48.1631 42.5078C48.9194 42.5847 49.5098 43.2234 49.5098 44C49.5098 44.8283 48.8381 45.4999 48.0098 45.5H46C45.3601 45.5 44.7236 45.514 44.0908 45.542C43.2632 45.5786 42.562 44.937 42.5254 44.1094C42.4891 43.2819 43.1305 42.5815 43.958 42.5449C44.635 42.515 45.3158 42.5 46 42.5H48.0098ZM62.0762 42.5C62.9046 42.5 63.5762 43.1716 63.5762 44C63.5762 44.8284 62.9046 45.5 62.0762 45.5H58.0576C57.2292 45.5 56.5576 44.8284 56.5576 44C56.5576 43.1716 57.2292 42.5 58.0576 42.5H62.0762ZM76.1426 42.5C76.971 42.5 77.6426 43.1716 77.6426 44C77.6426 44.8284 76.971 45.5 76.1426 45.5H72.124C71.2956 45.5 70.624 44.8284 70.624 44C70.624 43.1716 71.2956 42.5 72.124 42.5H76.1426ZM90.21 42.5L90.3633 42.5078C91.1195 42.5848 91.71 43.2235 91.71 44C91.71 44.8283 91.0382 45.4998 90.21 45.5H86.1904C85.362 45.5 84.6904 44.8284 84.6904 44C84.6904 43.1716 85.362 42.5 86.1904 42.5H90.21ZM104.276 42.5L104.43 42.5078C105.186 42.5847 105.776 43.2234 105.776 44C105.776 44.8284 105.105 45.4999 104.276 45.5H100.257C99.4286 45.4998 98.7568 44.8283 98.7568 44C98.7568 43.1717 99.4286 42.5002 100.257 42.5H104.276ZM118.343 42.5C119.171 42.5 119.843 43.1716 119.843 44C119.843 44.8284 119.171 45.5 118.343 45.5H114.324C113.496 45.5 112.824 44.8284 112.824 44C112.824 43.1716 113.496 42.5 114.324 42.5H118.343ZM132.409 42.5C133.238 42.5 133.909 43.1716 133.909 44C133.909 44.8284 133.238 45.5 132.409 45.5H128.391C127.562 45.5 126.891 44.8284 126.891 44C126.891 43.1716 127.562 42.5 128.391 42.5H132.409ZM146.477 42.5L146.63 42.5078C147.386 42.5848 147.977 43.2235 147.977 44C147.977 44.8283 147.305 45.4998 146.477 45.5H142.457C141.629 45.4999 140.957 44.8284 140.957 44C140.957 43.1716 141.629 42.5001 142.457 42.5H146.477ZM160.543 42.5L160.696 42.5078C161.453 42.5847 162.043 43.2234 162.043 44C162.043 44.8284 161.371 45.4999 160.543 45.5H156.523C155.695 45.4998 155.023 44.8283 155.023 44C155.023 43.1717 155.695 42.5002 156.523 42.5H160.543ZM174.609 42.5C175.438 42.5 176.109 43.1716 176.109 44C176.109 44.8284 175.438 45.5 174.609 45.5H170.591C169.762 45.5 169.091 44.8284 169.091 44C169.091 43.1716 169.762 42.5 170.591 42.5H174.609ZM188.676 42.5C189.504 42.5 190.176 43.1716 190.176 44C190.176 44.8284 189.504 45.5 188.676 45.5H184.657C183.829 45.5 183.157 44.8284 183.157 44C183.157 43.1716 183.829 42.5 184.657 42.5H188.676ZM202.743 42.5L202.896 42.5078C203.653 42.5847 204.243 43.2234 204.243 44C204.243 44.8283 203.571 45.4998 202.743 45.5H198.724C197.895 45.4999 197.224 44.8284 197.224 44C197.224 43.1716 197.895 42.5001 198.724 42.5H202.743ZM216.81 42.5L216.963 42.5078C217.719 42.5846 218.31 43.2233 218.31 44C218.31 44.8284 217.638 45.5 216.81 45.5H212.79C211.962 45.4998 211.29 44.8283 211.29 44C211.29 43.1717 211.962 42.5002 212.79 42.5H216.81ZM230.876 42.5C231.704 42.5 232.376 43.1716 232.376 44C232.376 44.8284 231.704 45.5 230.876 45.5H226.857C226.029 45.5 225.357 44.8284 225.357 44C225.357 43.1716 226.029 42.5 226.857 42.5H230.876ZM244.943 42.5L245.097 42.5078C245.853 42.5848 246.443 43.2235 246.443 44C246.443 44.8283 245.772 45.4997 244.943 45.5H240.924C240.095 45.5 239.424 44.8284 239.424 44C239.424 43.1716 240.095 42.5 240.924 42.5H244.943ZM259.01 42.5L259.163 42.5078C259.919 42.5847 260.51 43.2234 260.51 44C260.51 44.8283 259.838 45.4999 259.01 45.5H254.99C254.162 45.4999 253.49 44.8283 253.49 44C253.49 43.1717 254.162 42.5001 254.99 42.5H259.01ZM273.076 42.5C273.905 42.5 274.576 43.1716 274.576 44C274.576 44.8284 273.905 45.5 273.076 45.5H269.058C268.229 45.5 267.558 44.8284 267.558 44C267.558 43.1716 268.229 42.5 269.058 42.5H273.076ZM287.143 42.5C287.971 42.5 288.643 43.1716 288.643 44C288.643 44.8284 287.971 45.5 287.143 45.5H283.124C282.296 45.5 281.624 44.8284 281.624 44C281.624 43.1716 282.296 42.5 283.124 42.5H287.143ZM301.21 42.5C302.038 42.5002 302.71 43.1717 302.71 44C302.71 44.8283 302.038 45.4998 301.21 45.5H297.19C296.362 45.5 295.69 44.8284 295.69 44C295.69 43.1716 296.362 42.5 297.19 42.5H301.21ZM315.276 42.5L315.43 42.5078C316.186 42.5847 316.776 43.2234 316.776 44C316.776 44.8284 316.105 45.4999 315.276 45.5H311.257C310.429 45.4998 309.757 44.8283 309.757 44C309.757 43.1717 310.429 42.5002 311.257 42.5H315.276ZM329.343 42.5C330.171 42.5 330.843 43.1716 330.843 44C330.843 44.8284 330.171 45.5 329.343 45.5H325.324C324.496 45.5 323.824 44.8284 323.824 44C323.824 43.1716 324.496 42.5 325.324 42.5H329.343ZM343.409 42.5C344.238 42.5 344.909 43.1716 344.909 44C344.909 44.8284 344.238 45.5 343.409 45.5H339.391C338.562 45.5 337.891 44.8284 337.891 44C337.891 43.1716 338.562 42.5 339.391 42.5H343.409ZM357.477 42.5L357.63 42.5078C358.386 42.5848 358.977 43.2235 358.977 44C358.977 44.8283 358.305 45.4998 357.477 45.5H353.457C352.629 45.5 351.957 44.8284 351.957 44C351.957 43.1716 352.629 42.5 353.457 42.5H357.477ZM371.543 42.5L371.696 42.5078C372.453 42.5847 373.043 43.2234 373.043 44C373.043 44.8284 372.371 45.4999 371.543 45.5H367.523C366.695 45.4998 366.023 44.8283 366.023 44C366.023 43.1717 366.695 42.5002 367.523 42.5H371.543ZM385.609 42.5C386.438 42.5 387.109 43.1716 387.109 44C387.109 44.8284 386.438 45.5 385.609 45.5H381.591C380.762 45.5 380.091 44.8284 380.091 44C380.091 43.1716 380.762 42.5 381.591 42.5H385.609ZM399.676 42.5C400.504 42.5 401.176 43.1716 401.176 44C401.176 44.8284 400.504 45.5 399.676 45.5H395.657C394.829 45.5 394.157 44.8284 394.157 44C394.157 43.1716 394.829 42.5 395.657 42.5H399.676ZM413.743 42.5L413.896 42.5078C414.653 42.5848 415.243 43.2235 415.243 44C415.243 44.8283 414.571 45.4998 413.743 45.5H409.724C408.895 45.5 408.224 44.8284 408.224 44C408.224 43.1716 408.895 42.5 409.724 42.5H413.743ZM427.81 42.5L427.963 42.5078C428.719 42.5847 429.31 43.2234 429.31 44C429.31 44.8284 428.638 45.4999 427.81 45.5H423.79C422.962 45.4998 422.29 44.8283 422.29 44C422.29 43.1717 422.962 42.5002 423.79 42.5H427.81ZM441.876 42.5C442.704 42.5 443.376 43.1716 443.376 44C443.376 44.8284 442.704 45.5 441.876 45.5H437.857C437.029 45.5 436.357 44.8284 436.357 44C436.357 43.1716 437.029 42.5 437.857 42.5H441.876ZM455.942 42.5C456.771 42.5 457.442 43.1716 457.442 44C457.442 44.8284 456.771 45.5 455.942 45.5H451.924C451.095 45.5 450.424 44.8284 450.424 44C450.424 43.1716 451.095 42.5 451.924 42.5H455.942ZM470.063 42.459C470.822 42.5025 471.44 43.1149 471.475 43.8906C471.511 44.7181 470.869 45.4185 470.042 45.4551C469.365 45.485 468.684 45.5 468 45.5H465.99C465.162 45.5 464.49 44.8284 464.49 44C464.49 43.1716 465.162 42.5 465.99 42.5H468C468.64 42.5 469.276 42.486 469.909 42.458L470.063 42.459ZM482.938 39.8008C483.713 39.5096 484.578 39.9024 484.869 40.6777C485.16 41.4533 484.768 42.3182 483.992 42.6094C482.724 43.0857 481.428 43.5077 480.108 43.8711C479.31 44.0908 478.485 43.6216 478.265 42.8232C478.045 42.0246 478.514 41.1985 479.312 40.9785C480.544 40.6393 481.753 40.2454 482.938 39.8008ZM494.498 33.2295C495.145 32.7127 496.089 32.8186 496.606 33.4658C497.123 34.1132 497.017 35.0573 496.37 35.5742C495.308 36.4226 494.206 37.2244 493.069 37.9766C492.378 38.4336 491.447 38.2437 490.99 37.5527C490.534 36.8619 490.723 35.9316 491.414 35.4746C492.476 34.772 493.505 34.0222 494.498 33.2295ZM503.475 23.4141C503.932 22.7234 504.862 22.5336 505.553 22.9902C506.244 23.4472 506.434 24.3784 505.977 25.0693C505.224 26.2065 504.423 27.3077 503.574 28.3701C503.057 29.0175 502.113 29.1234 501.466 28.6064C500.819 28.0895 500.713 27.1453 501.229 26.498C502.022 25.5053 502.772 24.4764 503.475 23.4141ZM508.979 11.3125C509.198 10.5138 510.025 10.0437 510.823 10.2637C511.622 10.4837 512.091 11.3099 511.871 12.1084C511.508 13.4279 511.086 14.7236 510.609 15.9922C510.318 16.7677 509.453 17.1604 508.678 16.8691C507.902 16.5778 507.51 15.7129 507.801 14.9375C508.245 13.7533 508.639 12.5442 508.979 11.3125ZM513.5 0L513.488 1.02344C513.481 1.36386 513.47 1.7034 513.455 2.04199C513.419 2.86946 512.718 3.51093 511.891 3.47461C511.063 3.43804 510.421 2.7368 510.458 1.90918C510.486 1.27638 510.5 0.63989 510.5 0H513.5Z" fill="#E0E0E0"/>
</svg>
