<svg width="88" height="4" viewBox="0 0 88 4" fill="none" xmlns="http://www.w3.org/2000/svg">
<path d="M83.9883 3.5L83.835 3.49219C83.0785 3.41548 82.4883 2.77673 82.4883 2C82.4883 1.17157 83.1599 0.5 83.9883 0.5L86 0.5C86.8284 0.5 87.5 1.17157 87.5 2C87.5 2.82843 86.8284 3.5 86 3.5L83.9883 3.5ZM69.9043 3.5L69.751 3.49219C68.9948 3.41518 68.4043 2.77651 68.4043 2C68.4043 1.17173 69.0761 0.500253 69.9043 0.500002L73.9287 0.500001C74.7571 0.500076 75.4287 1.17162 75.4287 2C75.4287 2.82838 74.7571 3.49993 73.9287 3.5L69.9043 3.5ZM55.8213 3.5L55.668 3.49219C54.9116 3.41533 54.3213 2.77662 54.3213 2C54.3213 1.17162 54.9929 0.500078 55.8213 0.500003L59.8457 0.500002C60.6739 0.500254 61.3457 1.17173 61.3457 2C61.3457 2.82827 60.6739 3.49975 59.8457 3.5L55.8213 3.5ZM41.7383 3.5L41.585 3.49219C40.8285 3.41548 40.2383 2.77673 40.2383 2C40.2383 1.17158 40.9099 0.500004 41.7383 0.500004L45.7617 0.500004C46.5901 0.500004 47.2617 1.17158 47.2617 2C47.2617 2.82843 46.5901 3.5 45.7617 3.5L41.7383 3.5ZM27.6543 3.50001L27.501 3.49219C26.7448 3.41518 26.1543 2.77651 26.1543 2.00001C26.1543 1.17173 26.8261 0.500257 27.6543 0.500005L31.6787 0.500005C32.5071 0.500079 33.1787 1.17162 33.1787 2C33.1787 2.82838 32.5071 3.49993 31.6787 3.5L27.6543 3.50001ZM13.5713 3.50001L13.418 3.49219C12.6616 3.41533 12.0713 2.77662 12.0713 2.00001C12.0713 1.17163 12.7429 0.500081 13.5713 0.500006L17.5957 0.500006C18.4239 0.500257 19.0957 1.17173 19.0957 2.00001C19.0957 2.82828 18.4239 3.49975 17.5957 3.50001L13.5713 3.50001ZM1.5 3.50001L1.34668 3.4922C0.590277 3.4154 3.74607e-06 2.77667 -1.31134e-07 2.00001C-2.03558e-07 1.17158 0.67157 0.500007 1.5 0.500008L3.51172 0.500007C4.34015 0.500007 5.01172 1.17158 5.01172 2.00001C5.01171 2.82843 4.34015 3.50001 3.51172 3.50001L1.5 3.50001Z" fill="#E0E0E0"/>
</svg>
