<svg width="301" height="48" viewBox="0 0 301 48" fill="none" xmlns="http://www.w3.org/2000/svg">
<path d="M0.5 46C0.5 45.3158 0.515004 44.635 0.544922 43.958C0.58149 43.1305 1.28194 42.4891 2.10938 42.5254C2.93699 42.562 3.57857 43.2632 3.54199 44.0908C3.51403 44.7236 3.5 45.3601 3.5 46C3.5 46.8284 2.82843 47.5 2 47.5C1.17157 47.5 0.5 46.8284 0.5 46ZM3.39062 30.0078C3.68184 29.2323 4.54671 28.8396 5.32227 29.1309C6.09759 29.4222 6.49039 30.2871 6.19922 31.0625C5.75457 32.2467 5.36072 33.4558 5.02148 34.6875C4.80152 35.4862 3.97545 35.9563 3.17676 35.7363C2.37828 35.5163 1.90914 34.6901 2.12891 33.8916C2.49232 32.5721 2.91427 31.2764 3.39062 30.0078ZM10.4258 17.6299C10.9427 16.9825 11.8868 16.8766 12.5342 17.3936C13.1814 17.9105 13.2873 18.8547 12.7705 19.502C11.9778 20.4947 11.228 21.5236 10.5254 22.5859C10.0684 23.2766 9.13813 23.4664 8.44727 23.0098C7.7563 22.5528 7.56643 21.6216 8.02344 20.9307C8.77555 19.7935 9.57744 18.6923 10.4258 17.6299ZM20.9307 8.02344C21.6216 7.56643 22.5528 7.7563 23.0098 8.44727C23.4664 9.13813 23.2766 10.0684 22.5859 10.5254C21.5236 11.228 20.4947 11.9778 19.502 12.7705C18.8547 13.2873 17.9105 13.1814 17.3936 12.5342C16.8766 11.8868 16.9825 10.9427 17.6299 10.4258C18.6923 9.57744 19.7935 8.77555 20.9307 8.02344ZM33.8916 2.12891C34.6901 1.90914 35.5163 2.37829 35.7363 3.17676C35.9563 3.97545 35.4862 4.80152 34.6875 5.02148C33.4558 5.36072 32.2467 5.75457 31.0625 6.19922C30.2871 6.49039 29.4222 6.09759 29.1309 5.32227C28.8396 4.54671 29.2323 3.68184 30.0078 3.39062C31.2764 2.91427 32.5721 2.49232 33.8916 2.12891ZM48.0078 0.5C48.8362 0.5 49.5078 1.17157 49.5078 2C49.5078 2.82843 48.8362 3.5 48.0078 3.5H46C45.3601 3.5 44.7236 3.51403 44.0908 3.54199C43.2632 3.57857 42.562 2.93699 42.5254 2.10938C42.4891 1.28194 43.1305 0.581492 43.958 0.544922C44.635 0.515004 45.3158 0.5 46 0.5H48.0078ZM62.0635 0.5C62.8919 0.5 63.5635 1.17157 63.5635 2C63.5635 2.82843 62.8919 3.5 62.0635 3.5H58.0479C57.2194 3.5 56.5479 2.82843 56.5479 2C56.5479 1.17157 57.2194 0.5 58.0479 0.5H62.0635ZM76.1191 0.5L76.2725 0.507812C77.0288 0.584652 77.6191 1.22337 77.6191 2C77.6191 2.8284 76.9475 3.49995 76.1191 3.5H72.1035C71.2751 3.5 70.6035 2.82843 70.6035 2C70.6035 1.17157 71.2751 0.5 72.1035 0.5H76.1191ZM90.1748 0.5L90.3281 0.507812C91.0844 0.584701 91.6748 1.2234 91.6748 2C91.6748 2.82836 91.0031 3.49989 90.1748 3.5H86.1592C85.3307 3.5 84.6592 2.82843 84.6592 2C84.6592 1.17157 85.3307 0.5 86.1592 0.5H90.1748ZM104.23 0.5L104.384 0.507812C105.14 0.584752 105.73 1.22344 105.73 2C105.73 2.82832 105.059 3.49983 104.23 3.5H100.214C99.3856 3.49977 98.7139 2.82829 98.7139 2C98.7139 1.17171 99.3856 0.500227 100.214 0.5H104.23ZM118.286 0.5L118.439 0.507812C119.196 0.584798 119.786 1.22348 119.786 2C119.786 2.82829 119.114 3.49978 118.286 3.5H114.27C113.441 3.49983 112.77 2.82832 112.77 2C112.77 1.17168 113.441 0.500169 114.27 0.5H118.286ZM132.341 0.5C133.169 0.5 133.841 1.17157 133.841 2C133.841 2.82843 133.169 3.5 132.341 3.5H128.325C127.497 3.49989 126.825 2.82836 126.825 2C126.825 1.17164 127.497 0.500111 128.325 0.5H132.341ZM146.396 0.5C147.225 0.5 147.896 1.17157 147.896 2C147.896 2.82843 147.225 3.5 146.396 3.5H142.381C141.552 3.49994 140.881 2.82839 140.881 2C140.881 1.17161 141.552 0.500058 142.381 0.5H146.396ZM160.452 0.5C161.281 0.5 161.952 1.17157 161.952 2C161.952 2.82843 161.281 3.5 160.452 3.5H156.437C155.608 3.5 154.937 2.82843 154.937 2C154.937 1.17157 155.608 0.5 156.437 0.5H160.452ZM174.508 0.5C175.336 0.5 176.008 1.17157 176.008 2C176.008 2.82843 175.336 3.5 174.508 3.5H170.492C169.664 3.5 168.992 2.82843 168.992 2C168.992 1.17157 169.664 0.5 170.492 0.5H174.508ZM188.563 0.5C189.392 0.5 190.063 1.17157 190.063 2C190.063 2.82843 189.392 3.5 188.563 3.5H184.548C183.719 3.5 183.048 2.82843 183.048 2C183.048 1.17157 183.719 0.5 184.548 0.5H188.563ZM202.619 0.5L202.772 0.507812C203.529 0.584644 204.119 1.22336 204.119 2C204.119 2.8284 203.448 3.49996 202.619 3.5H198.604C197.775 3.5 197.104 2.82843 197.104 2C197.104 1.17157 197.775 0.5 198.604 0.5H202.619ZM216.675 0.5L216.828 0.507812C217.584 0.584694 218.175 1.2234 218.175 2C218.175 2.82837 217.503 3.4999 216.675 3.5H212.659C211.831 3.5 211.159 2.82843 211.159 2C211.159 1.17157 211.831 0.5 212.659 0.5H216.675ZM230.73 0.5C231.559 0.500157 232.23 1.17167 232.23 2C232.23 2.82833 231.559 3.49984 230.73 3.5H226.714C225.886 3.49976 225.214 2.82828 225.214 2C225.214 1.17172 225.886 0.500239 226.714 0.5H230.73ZM244.786 0.5C245.614 0.500214 246.286 1.17171 246.286 2C246.286 2.82829 245.614 3.49979 244.786 3.5H240.77C239.941 3.49982 239.27 2.82832 239.27 2C239.27 1.17168 239.941 0.500181 240.77 0.5H244.786ZM258.841 0.5C259.669 0.5 260.341 1.17157 260.341 2C260.341 2.82843 259.669 3.5 258.841 3.5H254.825C253.997 3.49988 253.325 2.82835 253.325 2C253.325 1.17165 253.997 0.500124 254.825 0.5H258.841ZM272.896 0.5C273.725 0.5 274.396 1.17157 274.396 2C274.396 2.82843 273.725 3.5 272.896 3.5H268.881C268.052 3.49993 267.381 2.82839 267.381 2C267.381 1.17161 268.052 0.500066 268.881 0.5H272.896ZM286.952 0.5C287.781 0.5 288.452 1.17157 288.452 2C288.452 2.82843 287.781 3.5 286.952 3.5H282.937C282.108 3.49998 281.437 2.82842 281.437 2C281.437 1.17158 282.108 0.500016 282.937 0.5H286.952ZM299 0.5C299.828 0.5 300.5 1.17157 300.5 2C300.5 2.82843 299.828 3.5 299 3.5H296.992C296.164 3.5 295.492 2.82843 295.492 2C295.492 1.17157 296.164 0.5 296.992 0.5H299Z" fill="#E0E0E0"/>
</svg>
