<svg width="194" height="218" viewBox="0 0 194 218" fill="none" xmlns="http://www.w3.org/2000/svg">
<path d="M155.225 217H21C9.9543 217 1 208.046 1 197V21C1 9.95431 9.9543 1 21 1H173C184.046 1 193 9.95429 193 21V154.883C193 159.071 191.686 163.152 189.242 166.553L178.982 180.833C176.539 184.234 175.225 188.316 175.225 192.503V197C175.225 208.046 166.27 217 155.225 217Z" stroke="#4A4F5A"/>
<path d="M16.936 60V51.84H18.04V60H16.936ZM19.9606 58.164V54.468H19.0726V53.628H19.9606V52.164H21.0166V53.628H22.4206V54.468H21.0166V58.164C21.0166 58.932 21.2446 59.292 22.1806 59.292H22.3966V60.048C22.2766 60.108 22.0126 60.144 21.7126 60.144C20.5246 60.144 19.9606 59.508 19.9606 58.164ZM26.8003 55.704H25.7443C25.9483 54.3 26.8723 53.472 28.4323 53.472C30.1363 53.472 30.9643 54.468 30.9643 55.956V58.464C30.9643 59.196 31.0243 59.652 31.1923 60H30.0763C29.9563 59.748 29.9203 59.376 29.9083 58.992C29.3683 59.796 28.5043 60.144 27.7363 60.144C26.4163 60.144 25.5283 59.532 25.5283 58.32C25.5283 57.444 26.0083 56.808 26.9443 56.496C27.8083 56.208 28.6843 56.136 29.9083 56.124V55.98C29.9083 54.948 29.4283 54.384 28.3363 54.384C27.4243 54.384 26.9323 54.888 26.8003 55.704ZM26.6083 58.296C26.6083 58.884 27.1003 59.232 27.8443 59.232C29.0203 59.232 29.9083 58.308 29.9083 57.216V56.916C27.1963 56.94 26.6083 57.516 26.6083 58.296ZM32.6955 60V51.36H33.7515V60H32.6955ZM35.4259 60V51.36H36.4819V60H35.4259ZM40.7484 60.144C38.9244 60.144 37.8324 58.896 37.8324 56.82C37.8324 54.66 38.9604 53.472 40.7484 53.472C42.5724 53.472 43.6644 54.744 43.6644 56.82C43.6644 58.968 42.5364 60.144 40.7484 60.144ZM40.7484 59.232C41.9364 59.232 42.5844 58.38 42.5844 56.82C42.5844 55.272 41.9244 54.384 40.7484 54.384C39.5604 54.384 38.9124 55.248 38.9124 56.82C38.9124 58.356 39.5724 59.232 40.7484 59.232ZM50.4264 60L49.0464 55.236L48.9024 54.516L48.7584 55.236L47.3904 60H46.0824L44.1864 53.628H45.3264L46.6344 58.572L46.7904 59.22L46.9464 58.572L48.3984 53.628H49.5384L50.9904 58.572L51.1344 59.196L51.2664 58.572L52.5744 53.628H53.6664L51.7584 60H50.4264ZM55.4013 55.26C55.4013 57.036 59.5413 55.572 59.5413 58.2C59.5413 59.388 58.4853 60.144 56.9853 60.144C55.4733 60.144 54.4173 59.424 54.1772 57.924H55.2333C55.3773 58.812 56.0373 59.304 57.0213 59.304C57.9813 59.304 58.4853 58.872 58.4853 58.272C58.4853 56.532 54.3933 57.972 54.3933 55.332C54.3933 54.36 55.1493 53.472 56.7093 53.472C58.0893 53.472 59.1093 54.12 59.3133 55.704H58.2573C58.1013 54.708 57.5493 54.336 56.6493 54.336C55.8573 54.336 55.4013 54.732 55.4013 55.26ZM63.4874 62.784C63.2474 62.784 62.9954 62.724 62.8634 62.688V61.872H63.1874C63.9674 61.872 64.1834 61.716 64.8074 60.288L65.0234 59.796L62.4194 53.628H63.5594L65.2874 57.84L65.5754 58.692L65.8634 57.84L67.5434 53.628H68.6234L65.6474 60.84C65.0114 62.376 64.5914 62.784 63.4874 62.784ZM72.0609 60.144C70.2369 60.144 69.1449 58.896 69.1449 56.82C69.1449 54.66 70.2729 53.472 72.0609 53.472C73.8849 53.472 74.9769 54.744 74.9769 56.82C74.9769 58.968 73.8489 60.144 72.0609 60.144ZM72.0609 59.232C73.2489 59.232 73.8969 58.38 73.8969 56.82C73.8969 55.272 73.2369 54.384 72.0609 54.384C70.8729 54.384 70.2249 55.248 70.2249 56.82C70.2249 58.356 70.8849 59.232 72.0609 59.232ZM80.3921 57.396V53.628H81.4481V60H80.3921V59.136C79.9601 59.808 79.2881 60.144 78.4601 60.144C77.1281 60.144 76.3361 59.364 76.3361 57.888V53.628H77.3921V57.672C77.3921 58.632 77.8121 59.244 78.7481 59.244C79.7801 59.244 80.3921 58.308 80.3921 57.396ZM85.6793 58.164V54.468H84.7913V53.628H85.6793V52.164H86.7353V53.628H88.1393V54.468H86.7353V58.164C86.7353 58.932 86.9633 59.292 87.8993 59.292H88.1153V60.048C87.9953 60.108 87.7313 60.144 87.4313 60.144C86.2433 60.144 85.6793 59.508 85.6793 58.164ZM91.7367 60.144C89.9127 60.144 88.8207 58.896 88.8207 56.82C88.8207 54.66 89.9487 53.472 91.7367 53.472C93.5607 53.472 94.6527 54.744 94.6527 56.82C94.6527 58.968 93.5247 60.144 91.7367 60.144ZM91.7367 59.232C92.9247 59.232 93.5727 58.38 93.5727 56.82C93.5727 55.272 92.9127 54.384 91.7367 54.384C90.5487 54.384 89.9007 55.248 89.9007 56.82C89.9007 58.356 90.5607 59.232 91.7367 59.232ZM103.682 55.824H102.626C102.458 54.852 101.81 54.384 100.97 54.384C99.7942 54.384 99.1702 55.248 99.1702 56.82C99.1702 58.368 99.8302 59.244 101.006 59.244C101.858 59.244 102.47 58.788 102.674 57.876H103.73C103.442 59.46 102.374 60.144 100.982 60.144C99.1702 60.144 98.0902 58.884 98.0902 56.82C98.0902 54.66 99.1942 53.472 100.97 53.472C102.374 53.472 103.478 54.264 103.682 55.824ZM107.627 60.144C105.803 60.144 104.711 58.896 104.711 56.82C104.711 54.66 105.839 53.472 107.627 53.472C109.451 53.472 110.543 54.744 110.543 56.82C110.543 58.968 109.415 60.144 107.627 60.144ZM107.627 59.232C108.815 59.232 109.463 58.38 109.463 56.82C109.463 55.272 108.803 54.384 107.627 54.384C106.439 54.384 105.791 55.248 105.791 56.82C105.791 58.356 106.451 59.232 107.627 59.232ZM111.903 60V53.628H112.959V54.492C113.391 53.82 114.087 53.472 114.927 53.472C116.283 53.472 117.087 54.264 117.087 55.74V60H116.031V55.956C116.031 54.996 115.599 54.372 114.639 54.372C113.583 54.372 112.959 55.32 112.959 56.232V60H111.903ZM118.77 60V53.628H119.826V54.492C120.258 53.82 120.954 53.472 121.794 53.472C123.15 53.472 123.954 54.264 123.954 55.74V60H122.898V55.956C122.898 54.996 122.466 54.372 121.506 54.372C120.45 54.372 119.826 55.32 119.826 56.232V60H118.77ZM131.145 57.924C130.797 59.412 129.729 60.144 128.277 60.144C126.429 60.144 125.313 58.896 125.313 56.82C125.313 54.66 126.429 53.472 128.217 53.472C130.017 53.472 131.097 54.708 131.097 56.736V57H126.393C126.453 58.428 127.125 59.232 128.277 59.232C129.177 59.232 129.813 58.8 130.041 57.924H131.145ZM128.217 54.384C127.197 54.384 126.585 55.02 126.429 56.208H129.993C129.849 55.032 129.213 54.384 128.217 54.384ZM137.772 55.824H136.716C136.548 54.852 135.9 54.384 135.06 54.384C133.884 54.384 133.26 55.248 133.26 56.82C133.26 58.368 133.92 59.244 135.096 59.244C135.948 59.244 136.56 58.788 136.764 57.876H137.82C137.532 59.46 136.464 60.144 135.072 60.144C133.26 60.144 132.18 58.884 132.18 56.82C132.18 54.66 133.284 53.472 135.06 53.472C136.464 53.472 137.568 54.264 137.772 55.824ZM139.269 58.164V54.468H138.381V53.628H139.269V52.164H140.325V53.628H141.729V54.468H140.325V58.164C140.325 58.932 140.553 59.292 141.489 59.292H141.705V60.048C141.585 60.108 141.321 60.144 141.021 60.144C139.833 60.144 139.269 59.508 139.269 58.164ZM145.425 62.784C145.185 62.784 144.933 62.724 144.801 62.688V61.872H145.125C145.905 61.872 146.121 61.716 146.745 60.288L146.961 59.796L144.357 53.628H145.497L147.225 57.84L147.513 58.692L147.801 57.84L149.481 53.628H150.561L147.585 60.84C146.949 62.376 146.529 62.784 145.425 62.784ZM153.998 60.144C152.174 60.144 151.082 58.896 151.082 56.82C151.082 54.66 152.21 53.472 153.998 53.472C155.822 53.472 156.914 54.744 156.914 56.82C156.914 58.968 155.786 60.144 153.998 60.144ZM153.998 59.232C155.186 59.232 155.834 58.38 155.834 56.82C155.834 55.272 155.174 54.384 153.998 54.384C152.81 54.384 152.162 55.248 152.162 56.82C152.162 58.356 152.822 59.232 153.998 59.232ZM162.33 57.396V53.628H163.386V60H162.33V59.136C161.898 59.808 161.226 60.144 160.398 60.144C159.066 60.144 158.274 59.364 158.274 57.888V53.628H159.33V57.672C159.33 58.632 159.75 59.244 160.686 59.244C161.718 59.244 162.33 58.308 162.33 57.396ZM165.07 60V53.628H166.126V54.612C166.558 53.832 167.242 53.472 168.01 53.472C168.262 53.472 168.49 53.532 168.61 53.628V54.576C168.43 54.516 168.202 54.492 167.95 54.492C166.678 54.492 166.126 55.284 166.126 56.436V60H165.07ZM16.84 68.776V67.36H17.896V68.776H16.84ZM16.84 76V69.628H17.896V76H16.84ZM19.5705 76V69.628H20.6265V70.492C21.0585 69.82 21.7545 69.472 22.5945 69.472C23.9505 69.472 24.7545 70.264 24.7545 71.74V76H23.6985V71.956C23.6985 70.996 23.2665 70.372 22.3065 70.372C21.2505 70.372 20.6265 71.32 20.6265 72.232V76H19.5705ZM27.2177 71.26C27.2177 73.036 31.3577 71.572 31.3577 74.2C31.3577 75.388 30.3017 76.144 28.8017 76.144C27.2897 76.144 26.2337 75.424 25.9937 73.924H27.0497C27.1937 74.812 27.8537 75.304 28.8377 75.304C29.7977 75.304 30.3017 74.872 30.3017 74.272C30.3017 72.532 26.2097 73.972 26.2097 71.332C26.2097 70.36 26.9657 69.472 28.5257 69.472C29.9057 69.472 30.9257 70.12 31.1297 71.704H30.0737C29.9177 70.708 29.3657 70.336 28.4657 70.336C27.6737 70.336 27.2177 70.732 27.2177 71.26ZM32.7574 74.164V70.468H31.8694V69.628H32.7574V68.164H33.8134V69.628H35.2174V70.468H33.8134V74.164C33.8134 74.932 34.0414 75.292 34.9774 75.292H35.1934V76.048C35.0734 76.108 34.8094 76.144 34.5094 76.144C33.3214 76.144 32.7574 75.508 32.7574 74.164ZM37.1948 71.704H36.1388C36.3428 70.3 37.2668 69.472 38.8268 69.472C40.5308 69.472 41.3588 70.468 41.3588 71.956V74.464C41.3588 75.196 41.4188 75.652 41.5868 76H40.4708C40.3508 75.748 40.3148 75.376 40.3028 74.992C39.7628 75.796 38.8988 76.144 38.1308 76.144C36.8108 76.144 35.9228 75.532 35.9228 74.32C35.9228 73.444 36.4028 72.808 37.3388 72.496C38.2028 72.208 39.0788 72.136 40.3028 72.124V71.98C40.3028 70.948 39.8228 70.384 38.7308 70.384C37.8188 70.384 37.3268 70.888 37.1948 71.704ZM37.0028 74.296C37.0028 74.884 37.4948 75.232 38.2388 75.232C39.4148 75.232 40.3028 74.308 40.3028 73.216V72.916C37.5908 72.94 37.0028 73.516 37.0028 74.296ZM43.09 76V67.36H44.146V76H43.09ZM45.8205 76V67.36H46.8765V76H45.8205ZM54.0589 73.924C53.7109 75.412 52.6429 76.144 51.1909 76.144C49.3429 76.144 48.2269 74.896 48.2269 72.82C48.2269 70.66 49.3429 69.472 51.1309 69.472C52.9309 69.472 54.0109 70.708 54.0109 72.736V73H49.3069C49.3669 74.428 50.0389 75.232 51.1909 75.232C52.0909 75.232 52.7269 74.8 52.9549 73.924H54.0589ZM51.1309 70.384C50.1109 70.384 49.4989 71.02 49.3429 72.208H52.9069C52.7629 71.032 52.1269 70.384 51.1309 70.384ZM57.8061 76.144C56.1141 76.144 55.0941 74.896 55.0941 72.82C55.0941 70.66 56.1381 69.472 57.8061 69.472C58.5621 69.472 59.1741 69.784 59.5941 70.372V67.36H60.6501V76H59.5941V75.196C59.1741 75.796 58.5621 76.144 57.8061 76.144ZM57.8781 75.232C58.9941 75.232 59.5941 74.38 59.5941 72.82C59.5941 71.272 58.9701 70.384 57.8781 70.384C56.7741 70.384 56.1741 71.248 56.1741 72.82C56.1741 74.356 56.7981 75.232 57.8781 75.232ZM65.7065 71.704H64.6505C64.8545 70.3 65.7785 69.472 67.3385 69.472C69.0425 69.472 69.8705 70.468 69.8705 71.956V74.464C69.8705 75.196 69.9305 75.652 70.0985 76H68.9825C68.8625 75.748 68.8265 75.376 68.8145 74.992C68.2745 75.796 67.4105 76.144 66.6425 76.144C65.3225 76.144 64.4345 75.532 64.4345 74.32C64.4345 73.444 64.9145 72.808 65.8505 72.496C66.7145 72.208 67.5905 72.136 68.8145 72.124V71.98C68.8145 70.948 68.3345 70.384 67.2425 70.384C66.3305 70.384 65.8385 70.888 65.7065 71.704ZM65.5145 74.296C65.5145 74.884 66.0065 75.232 66.7505 75.232C67.9265 75.232 68.8145 74.308 68.8145 73.216V72.916C66.1025 72.94 65.5145 73.516 65.5145 74.296ZM72.6697 78.64H71.6137V69.628H72.6697V70.42C73.0897 69.82 73.7017 69.472 74.4577 69.472C76.1497 69.472 77.1697 70.72 77.1697 72.796C77.1697 74.956 76.1257 76.144 74.4577 76.144C73.7017 76.144 73.0897 75.832 72.6697 75.244V78.64ZM74.3857 70.384C73.2697 70.384 72.6697 71.236 72.6697 72.796C72.6697 74.344 73.2937 75.232 74.3857 75.232C75.4897 75.232 76.0897 74.368 76.0897 72.796C76.0897 71.26 75.4657 70.384 74.3857 70.384ZM79.5955 78.64H78.5395V69.628H79.5955V70.42C80.0155 69.82 80.6275 69.472 81.3835 69.472C83.0755 69.472 84.0955 70.72 84.0955 72.796C84.0955 74.956 83.0515 76.144 81.3835 76.144C80.6275 76.144 80.0155 75.832 79.5955 75.244V78.64ZM81.3115 70.384C80.1955 70.384 79.5955 71.236 79.5955 72.796C79.5955 74.344 80.2195 75.232 81.3115 75.232C82.4155 75.232 83.0155 74.368 83.0155 72.796C83.0155 71.26 82.3915 70.384 81.3115 70.384ZM86.2333 71.26C86.2333 73.036 90.3733 71.572 90.3733 74.2C90.3733 75.388 89.3173 76.144 87.8173 76.144C86.3053 76.144 85.2493 75.424 85.0093 73.924H86.0653C86.2093 74.812 86.8693 75.304 87.8533 75.304C88.8133 75.304 89.3173 74.872 89.3173 74.272C89.3173 72.532 85.2253 73.972 85.2253 71.332C85.2253 70.36 85.9813 69.472 87.5413 69.472C88.9213 69.472 89.9413 70.12 90.1453 71.704H89.0893C88.9333 70.708 88.3813 70.336 87.4813 70.336C86.6893 70.336 86.2333 70.732 86.2333 71.26ZM94.1754 74.164V70.468H93.2874V69.628H94.1754V68.164H95.2314V69.628H96.6354V70.468H95.2314V74.164C95.2314 74.932 95.4594 75.292 96.3954 75.292H96.6114V76.048C96.4914 76.108 96.2274 76.144 95.9274 76.144C94.7394 76.144 94.1754 75.508 94.1754 74.164ZM100.233 76.144C98.4088 76.144 97.3168 74.896 97.3168 72.82C97.3168 70.66 98.4448 69.472 100.233 69.472C102.057 69.472 103.149 70.744 103.149 72.82C103.149 74.968 102.021 76.144 100.233 76.144ZM100.233 75.232C101.421 75.232 102.069 74.38 102.069 72.82C102.069 71.272 101.409 70.384 100.233 70.384C99.0448 70.384 98.3968 71.248 98.3968 72.82C98.3968 74.356 99.0568 75.232 100.233 75.232ZM107.882 71.704H106.826C107.03 70.3 107.954 69.472 109.514 69.472C111.218 69.472 112.046 70.468 112.046 71.956V74.464C112.046 75.196 112.106 75.652 112.274 76H111.158C111.038 75.748 111.002 75.376 110.99 74.992C110.45 75.796 109.586 76.144 108.818 76.144C107.498 76.144 106.61 75.532 106.61 74.32C106.61 73.444 107.09 72.808 108.026 72.496C108.89 72.208 109.766 72.136 110.99 72.124V71.98C110.99 70.948 110.51 70.384 109.418 70.384C108.506 70.384 108.014 70.888 107.882 71.704ZM107.69 74.296C107.69 74.884 108.182 75.232 108.926 75.232C110.102 75.232 110.99 74.308 110.99 73.216V72.916C108.278 72.94 107.69 73.516 107.69 74.296ZM121.448 71.824H120.392C120.224 70.852 119.576 70.384 118.736 70.384C117.56 70.384 116.936 71.248 116.936 72.82C116.936 74.368 117.596 75.244 118.772 75.244C119.624 75.244 120.236 74.788 120.44 73.876H121.496C121.208 75.46 120.14 76.144 118.748 76.144C116.936 76.144 115.856 74.884 115.856 72.82C115.856 70.66 116.96 69.472 118.736 69.472C120.14 69.472 121.244 70.264 121.448 71.824ZM126.857 73.396V69.628H127.913V76H126.857V75.136C126.425 75.808 125.753 76.144 124.925 76.144C123.593 76.144 122.801 75.364 122.801 73.888V69.628H123.857V73.672C123.857 74.632 124.277 75.244 125.213 75.244C126.245 75.244 126.857 74.308 126.857 73.396ZM130.378 71.26C130.378 73.036 134.518 71.572 134.518 74.2C134.518 75.388 133.462 76.144 131.962 76.144C130.45 76.144 129.394 75.424 129.154 73.924H130.21C130.354 74.812 131.014 75.304 131.998 75.304C132.958 75.304 133.462 74.872 133.462 74.272C133.462 72.532 129.37 73.972 129.37 71.332C129.37 70.36 130.126 69.472 131.686 69.472C133.066 69.472 134.086 70.12 134.29 71.704H133.234C133.078 70.708 132.526 70.336 131.626 70.336C130.834 70.336 130.378 70.732 130.378 71.26ZM135.918 74.164V70.468H135.03V69.628H135.918V68.164H136.974V69.628H138.378V70.468H136.974V74.164C136.974 74.932 137.202 75.292 138.138 75.292H138.354V76.048C138.234 76.108 137.97 76.144 137.67 76.144C136.482 76.144 135.918 75.508 135.918 74.164ZM141.975 76.144C140.151 76.144 139.059 74.896 139.059 72.82C139.059 70.66 140.187 69.472 141.975 69.472C143.799 69.472 144.891 70.744 144.891 72.82C144.891 74.968 143.763 76.144 141.975 76.144ZM141.975 75.232C143.163 75.232 143.811 74.38 143.811 72.82C143.811 71.272 143.151 70.384 141.975 70.384C140.787 70.384 140.139 71.248 140.139 72.82C140.139 74.356 140.799 75.232 141.975 75.232ZM146.25 76V69.628H147.306V70.444C147.714 69.796 148.35 69.472 149.13 69.472C150.006 69.472 150.642 69.856 150.942 70.6C151.362 69.856 152.058 69.472 152.91 69.472C154.206 69.472 154.986 70.264 154.986 71.74V76H153.93V71.956C153.93 70.996 153.546 70.372 152.682 70.372C151.722 70.372 151.146 71.32 151.146 72.232V76H150.09V71.956C150.09 70.996 149.706 70.372 148.842 70.372C147.882 70.372 147.306 71.32 147.306 72.232V76H146.25ZM19.228 91.144C17.536 91.144 16.516 89.896 16.516 87.82C16.516 85.66 17.56 84.472 19.228 84.472C19.984 84.472 20.596 84.784 21.016 85.372V82.36H22.072V91H21.016V90.196C20.596 90.796 19.984 91.144 19.228 91.144ZM19.3 90.232C20.416 90.232 21.016 89.38 21.016 87.82C21.016 86.272 20.392 85.384 19.3 85.384C18.196 85.384 17.596 86.248 17.596 87.82C17.596 89.356 18.22 90.232 19.3 90.232ZM26.3461 91.144C24.5221 91.144 23.4301 89.896 23.4301 87.82C23.4301 85.66 24.5581 84.472 26.3461 84.472C28.1701 84.472 29.2621 85.744 29.2621 87.82C29.2621 89.968 28.1341 91.144 26.3461 91.144ZM26.3461 90.232C27.5341 90.232 28.1821 89.38 28.1821 87.82C28.1821 86.272 27.5221 85.384 26.3461 85.384C25.1581 85.384 24.5101 86.248 24.5101 87.82C24.5101 89.356 25.1701 90.232 26.3461 90.232ZM30.6213 91V84.628H31.6773V85.444C32.0853 84.796 32.7213 84.472 33.5013 84.472C34.3773 84.472 35.0133 84.856 35.3133 85.6C35.7333 84.856 36.4293 84.472 37.2812 84.472C38.5773 84.472 39.3573 85.264 39.3573 86.74V91H38.3013V86.956C38.3013 85.996 37.9173 85.372 37.0533 85.372C36.0933 85.372 35.5173 86.32 35.5173 87.232V91H34.4613V86.956C34.4613 85.996 34.0773 85.372 33.2133 85.372C32.2533 85.372 31.6773 86.32 31.6773 87.232V91H30.6213ZM42.0112 86.704H40.9552C41.1592 85.3 42.0832 84.472 43.6432 84.472C45.3472 84.472 46.1752 85.468 46.1752 86.956V89.464C46.1752 90.196 46.2352 90.652 46.4032 91H45.2872C45.1672 90.748 45.1312 90.376 45.1192 89.992C44.5792 90.796 43.7152 91.144 42.9472 91.144C41.6272 91.144 40.7392 90.532 40.7392 89.32C40.7392 88.444 41.2192 87.808 42.1552 87.496C43.0192 87.208 43.8952 87.136 45.1192 87.124V86.98C45.1192 85.948 44.6392 85.384 43.5472 85.384C42.6352 85.384 42.1432 85.888 42.0112 86.704ZM41.8192 89.296C41.8192 89.884 42.3112 90.232 43.0552 90.232C44.2312 90.232 45.1192 89.308 45.1192 88.216V87.916C42.4072 87.94 41.8192 88.516 41.8192 89.296ZM47.9064 83.776V82.36H48.9624V83.776H47.9064ZM47.9064 91V84.628H48.9624V91H47.9064ZM50.6369 91V84.628H51.6929V85.492C52.1249 84.82 52.8209 84.472 53.6609 84.472C55.0169 84.472 55.8209 85.264 55.8209 86.74V91H54.7649V86.956C54.7649 85.996 54.3329 85.372 53.3729 85.372C52.3169 85.372 51.6929 86.32 51.6929 87.232V91H50.6369ZM61.6104 93.172C60.4344 91.336 59.8224 89.548 59.8224 87.76C59.8224 85.972 60.4344 84.196 61.6104 82.36H62.6544C61.5264 84.244 60.9504 85.996 60.9504 87.76C60.9504 89.536 61.5264 91.288 62.6544 93.172H61.6104ZM64.0382 93.784C63.7982 93.784 63.5462 93.724 63.4142 93.688V92.872H63.7382C64.5182 92.872 64.7342 92.716 65.3582 91.288L65.5742 90.796L62.9702 84.628H64.1102L65.8382 88.84L66.1262 89.692L66.4142 88.84L68.0942 84.628H69.1742L66.1982 91.84C65.5622 93.376 65.1422 93.784 64.0382 93.784ZM72.6117 91.144C70.7877 91.144 69.6957 89.896 69.6957 87.82C69.6957 85.66 70.8237 84.472 72.6117 84.472C74.4357 84.472 75.5277 85.744 75.5277 87.82C75.5277 89.968 74.3997 91.144 72.6117 91.144ZM72.6117 90.232C73.7997 90.232 74.4477 89.38 74.4477 87.82C74.4477 86.272 73.7877 85.384 72.6117 85.384C71.4237 85.384 70.7757 86.248 70.7757 87.82C70.7757 89.356 71.4357 90.232 72.6117 90.232ZM80.9429 88.396V84.628H81.9989V91H80.9429V90.136C80.5109 90.808 79.8389 91.144 79.0109 91.144C77.6789 91.144 76.8869 90.364 76.8869 88.888V84.628H77.9429V88.672C77.9429 89.632 78.3629 90.244 79.2989 90.244C80.3309 90.244 80.9429 89.308 80.9429 88.396ZM83.6838 91V84.628H84.7398V85.612C85.1718 84.832 85.8558 84.472 86.6238 84.472C86.8758 84.472 87.1038 84.532 87.2238 84.628V85.576C87.0438 85.516 86.8158 85.492 86.5638 85.492C85.2918 85.492 84.7398 86.284 84.7398 87.436V91H83.6838ZM93.1547 91.144C91.3307 91.144 90.2387 89.896 90.2387 87.82C90.2387 85.66 91.3667 84.472 93.1547 84.472C94.9787 84.472 96.0707 85.744 96.0707 87.82C96.0707 89.968 94.9427 91.144 93.1547 91.144ZM93.1547 90.232C94.3427 90.232 94.9907 89.38 94.9907 87.82C94.9907 86.272 94.3307 85.384 93.1547 85.384C91.9667 85.384 91.3187 86.248 91.3187 87.82C91.3187 89.356 91.9787 90.232 93.1547 90.232ZM102.833 91L101.453 86.236L101.309 85.516L101.165 86.236L99.7967 91H98.4887L96.5927 84.628H97.7327L99.0407 89.572L99.1967 90.22L99.3527 89.572L100.805 84.628H101.945L103.397 89.572L103.541 90.196L103.673 89.572L104.981 84.628H106.073L104.165 91H102.833ZM107.028 91V84.628H108.084V85.492C108.516 84.82 109.212 84.472 110.052 84.472C111.408 84.472 112.212 85.264 112.212 86.74V91H111.156V86.956C111.156 85.996 110.724 85.372 109.764 85.372C108.708 85.372 108.084 86.32 108.084 87.232V91H107.028ZM118.889 91.144C117.065 91.144 115.973 89.896 115.973 87.82C115.973 85.66 117.101 84.472 118.889 84.472C120.713 84.472 121.805 85.744 121.805 87.82C121.805 89.968 120.677 91.144 118.889 91.144ZM118.889 90.232C120.077 90.232 120.725 89.38 120.725 87.82C120.725 86.272 120.065 85.384 118.889 85.384C117.701 85.384 117.053 86.248 117.053 87.82C117.053 89.356 117.713 90.232 118.889 90.232ZM123.164 91V84.628H124.22V85.612C124.652 84.832 125.336 84.472 126.104 84.472C126.356 84.472 126.584 84.532 126.704 84.628V85.576C126.524 85.516 126.296 85.492 126.044 85.492C124.772 85.492 124.22 86.284 124.22 87.436V91H123.164ZM132.635 91.144C130.811 91.144 129.719 89.896 129.719 87.82C129.719 85.66 130.847 84.472 132.635 84.472C134.459 84.472 135.551 85.744 135.551 87.82C135.551 89.968 134.423 91.144 132.635 91.144ZM132.635 90.232C133.823 90.232 134.471 89.38 134.471 87.82C134.471 86.272 133.811 85.384 132.635 85.384C131.447 85.384 130.799 86.248 130.799 87.82C130.799 89.356 131.459 90.232 132.635 90.232ZM136.91 91V84.628H137.966V85.492C138.398 84.82 139.094 84.472 139.934 84.472C141.29 84.472 142.094 85.264 142.094 86.74V91H141.038V86.956C141.038 85.996 140.606 85.372 139.646 85.372C138.59 85.372 137.966 86.32 137.966 87.232V91H136.91ZM149.286 88.924C148.938 90.412 147.87 91.144 146.418 91.144C144.57 91.144 143.454 89.896 143.454 87.82C143.454 85.66 144.57 84.472 146.358 84.472C148.158 84.472 149.238 85.708 149.238 87.736V88H144.534C144.594 89.428 145.266 90.232 146.418 90.232C147.318 90.232 147.954 89.8 148.182 88.924H149.286ZM146.358 85.384C145.338 85.384 144.726 86.02 144.57 87.208H148.134C147.99 86.032 147.354 85.384 146.358 85.384ZM16.84 107V100.628H17.896V101.612C18.328 100.832 19.012 100.472 19.78 100.472C20.032 100.472 20.26 100.532 20.38 100.628V101.576C20.2 101.516 19.972 101.492 19.72 101.492C18.448 101.492 17.896 102.284 17.896 103.436V107H16.84ZM26.7074 104.924C26.3594 106.412 25.2914 107.144 23.8394 107.144C21.9914 107.144 20.8754 105.896 20.8754 103.82C20.8754 101.66 21.9914 100.472 23.7794 100.472C25.5794 100.472 26.6594 101.708 26.6594 103.736V104H21.9554C22.0154 105.428 22.6874 106.232 23.8394 106.232C24.7394 106.232 25.3754 105.8 25.6034 104.924H26.7074ZM23.7794 101.384C22.7594 101.384 22.1474 102.02 21.9914 103.208H25.5554C25.4114 102.032 24.7754 101.384 23.7794 101.384ZM30.3346 107.048C28.7146 107.048 27.7426 105.812 27.7426 103.772C27.7426 101.636 28.7386 100.472 30.3346 100.472C31.1866 100.472 31.8226 100.772 32.2426 101.324V100.628H33.2986V107.192C33.2986 108.968 32.1586 109.796 30.6946 109.796C29.1946 109.796 28.1386 109.076 27.9106 107.624H28.9666C29.0986 108.464 29.7586 108.92 30.6826 108.92C31.6186 108.92 32.2426 108.416 32.2426 107.228V106.136C31.7986 106.736 31.1506 107.048 30.3346 107.048ZM30.5266 106.136C31.6426 106.136 32.2426 105.296 32.2426 103.76C32.2426 102.26 31.6186 101.384 30.5266 101.384C29.4226 101.384 28.8226 102.224 28.8226 103.772C28.8226 105.272 29.4346 106.136 30.5266 106.136ZM34.9923 99.776V98.36H36.0483V99.776H34.9923ZM34.9923 107V100.628H36.0483V107H34.9923ZM38.5028 102.26C38.5028 104.036 42.6428 102.572 42.6428 105.2C42.6428 106.388 41.5868 107.144 40.0868 107.144C38.5748 107.144 37.5188 106.424 37.2788 104.924H38.3348C38.4788 105.812 39.1388 106.304 40.1228 106.304C41.0828 106.304 41.5868 105.872 41.5868 105.272C41.5868 103.532 37.4948 104.972 37.4948 102.332C37.4948 101.36 38.2508 100.472 39.8108 100.472C41.1908 100.472 42.2108 101.12 42.4148 102.704H41.3588C41.2028 101.708 40.6508 101.336 39.7508 101.336C38.9588 101.336 38.5028 101.732 38.5028 102.26ZM44.0426 105.164V101.468H43.1546V100.628H44.0426V99.164H45.0986V100.628H46.5026V101.468H45.0986V105.164C45.0986 105.932 45.3266 106.292 46.2626 106.292H46.4786V107.048C46.3586 107.108 46.0946 107.144 45.7946 107.144C44.6066 107.144 44.0426 106.508 44.0426 105.164ZM53.016 104.924C52.668 106.412 51.6 107.144 50.148 107.144C48.3 107.144 47.184 105.896 47.184 103.82C47.184 101.66 48.3 100.472 50.088 100.472C51.888 100.472 52.968 101.708 52.968 103.736V104H48.264C48.324 105.428 48.996 106.232 50.148 106.232C51.048 106.232 51.684 105.8 51.912 104.924H53.016ZM50.088 101.384C49.068 101.384 48.456 102.02 48.3 103.208H51.864C51.72 102.032 51.084 101.384 50.088 101.384ZM54.3752 107V100.628H55.4312V101.612C55.8632 100.832 56.5472 100.472 57.3152 100.472C57.5672 100.472 57.7952 100.532 57.9152 100.628V101.576C57.7352 101.516 57.5072 101.492 57.2552 101.492C55.9832 101.492 55.4312 102.284 55.4312 103.436V107H54.3752ZM64.2425 104.924C63.8945 106.412 62.8265 107.144 61.3745 107.144C59.5265 107.144 58.4105 105.896 58.4105 103.82C58.4105 101.66 59.5265 100.472 61.3145 100.472C63.1145 100.472 64.1945 101.708 64.1945 103.736V104H59.4905C59.5505 105.428 60.2225 106.232 61.3745 106.232C62.2745 106.232 62.9105 105.8 63.1385 104.924H64.2425ZM61.3145 101.384C60.2945 101.384 59.6825 102.02 59.5265 103.208H63.0905C62.9465 102.032 62.3105 101.384 61.3145 101.384ZM67.9897 107.144C66.2977 107.144 65.2777 105.896 65.2777 103.82C65.2777 101.66 66.3217 100.472 67.9897 100.472C68.7457 100.472 69.3577 100.784 69.7777 101.372V98.36H70.8337V107H69.7777V106.196C69.3577 106.796 68.7457 107.144 67.9897 107.144ZM68.0617 106.232C69.1777 106.232 69.7777 105.38 69.7777 103.82C69.7777 102.272 69.1537 101.384 68.0617 101.384C66.9577 101.384 66.3577 102.248 66.3577 103.82C66.3577 105.356 66.9817 106.232 68.0617 106.232ZM75.0621 105.164V101.468H74.1741V100.628H75.0621V99.164H76.1181V100.628H77.5221V101.468H76.1181V105.164C76.1181 105.932 76.3461 106.292 77.2821 106.292H77.4981V107.048C77.3781 107.108 77.1141 107.144 76.8141 107.144C75.6261 107.144 75.0621 106.508 75.0621 105.164ZM78.5275 107V98.36H79.5835V101.492C80.0155 100.82 80.7115 100.472 81.5515 100.472C82.9075 100.472 83.7115 101.264 83.7115 102.74V107H82.6555V102.956C82.6555 101.996 82.2235 101.372 81.2635 101.372C80.2075 101.372 79.5835 102.32 79.5835 103.232V107H78.5275ZM85.3947 107V100.628H86.4507V101.612C86.8827 100.832 87.5667 100.472 88.3347 100.472C88.5867 100.472 88.8147 100.532 88.9347 100.628V101.576C88.7547 101.516 88.5267 101.492 88.2747 101.492C87.0027 101.492 86.4507 102.284 86.4507 103.436V107H85.3947ZM92.3461 107.144C90.5221 107.144 89.4301 105.896 89.4301 103.82C89.4301 101.66 90.5581 100.472 92.3461 100.472C94.1701 100.472 95.2621 101.744 95.2621 103.82C95.2621 105.968 94.1341 107.144 92.3461 107.144ZM92.3461 106.232C93.5341 106.232 94.1821 105.38 94.1821 103.82C94.1821 102.272 93.5221 101.384 92.3461 101.384C91.1581 101.384 90.5101 102.248 90.5101 103.82C90.5101 105.356 91.1701 106.232 92.3461 106.232ZM100.677 104.396V100.628H101.733V107H100.677V106.136C100.245 106.808 99.5733 107.144 98.7453 107.144C97.4133 107.144 96.6213 106.364 96.6213 104.888V100.628H97.6773V104.672C97.6773 105.632 98.0973 106.244 99.0333 106.244C100.065 106.244 100.677 105.308 100.677 104.396ZM105.686 107.048C104.066 107.048 103.094 105.812 103.094 103.772C103.094 101.636 104.09 100.472 105.686 100.472C106.538 100.472 107.174 100.772 107.594 101.324V100.628H108.65V107.192C108.65 108.968 107.51 109.796 106.046 109.796C104.546 109.796 103.49 109.076 103.262 107.624H104.318C104.45 108.464 105.11 108.92 106.034 108.92C106.97 108.92 107.594 108.416 107.594 107.228V106.136C107.15 106.736 106.502 107.048 105.686 107.048ZM105.878 106.136C106.994 106.136 107.594 105.296 107.594 103.76C107.594 102.26 106.97 101.384 105.878 101.384C104.774 101.384 104.174 102.224 104.174 103.772C104.174 105.272 104.786 106.136 105.878 106.136ZM110.344 107V98.36H111.4V101.492C111.832 100.82 112.528 100.472 113.368 100.472C114.724 100.472 115.528 101.264 115.528 102.74V107H114.472V102.956C114.472 101.996 114.04 101.372 113.08 101.372C112.024 101.372 111.4 102.32 111.4 103.232V107H110.344ZM123.669 104.396V100.628H124.725V107H123.669V106.136C123.237 106.808 122.565 107.144 121.737 107.144C120.405 107.144 119.613 106.364 119.613 104.888V100.628H120.669V104.672C120.669 105.632 121.089 106.244 122.025 106.244C123.057 106.244 123.669 105.308 123.669 104.396ZM127.19 102.26C127.19 104.036 131.33 102.572 131.33 105.2C131.33 106.388 130.274 107.144 128.774 107.144C127.262 107.144 126.206 106.424 125.966 104.924H127.022C127.166 105.812 127.826 106.304 128.81 106.304C129.77 106.304 130.274 105.872 130.274 105.272C130.274 103.532 126.182 104.972 126.182 102.332C126.182 101.36 126.938 100.472 128.498 100.472C129.878 100.472 130.898 101.12 131.102 102.704H130.046C129.89 101.708 129.338 101.336 128.438 101.336C127.646 101.336 127.19 101.732 127.19 102.26ZM133.042 109.172H131.998C133.126 107.288 133.702 105.536 133.702 103.76C133.702 101.996 133.126 100.244 131.998 98.36H133.042C134.218 100.196 134.83 101.972 134.83 103.76C134.83 105.548 134.218 107.336 133.042 109.172ZM136.31 107V105.704H137.606V106.4C137.606 107.516 137.426 108.2 137.006 108.98H136.406C136.682 108.26 136.838 107.744 136.838 107H136.31ZM142.343 102.26C142.343 104.036 146.483 102.572 146.483 105.2C146.483 106.388 145.427 107.144 143.927 107.144C142.415 107.144 141.359 106.424 141.119 104.924H142.175C142.319 105.812 142.979 106.304 143.963 106.304C144.923 106.304 145.427 105.872 145.427 105.272C145.427 103.532 141.335 104.972 141.335 102.332C141.335 101.36 142.091 100.472 143.651 100.472C145.031 100.472 146.051 101.12 146.255 102.704H145.199C145.043 101.708 144.491 101.336 143.591 101.336C142.799 101.336 142.343 101.732 142.343 102.26ZM150.33 107.144C148.506 107.144 147.414 105.896 147.414 103.82C147.414 101.66 148.542 100.472 150.33 100.472C152.154 100.472 153.246 101.744 153.246 103.82C153.246 105.968 152.118 107.144 150.33 107.144ZM150.33 106.232C151.518 106.232 152.166 105.38 152.166 103.82C152.166 102.272 151.506 101.384 150.33 101.384C149.142 101.384 148.494 102.248 148.494 103.82C148.494 105.356 149.154 106.232 150.33 106.232ZM157.296 109.784C157.056 109.784 156.804 109.724 156.672 109.688V108.872H156.996C157.776 108.872 157.992 108.716 158.616 107.288L158.832 106.796L156.228 100.628H157.368L159.096 104.84L159.384 105.692L159.672 104.84L161.352 100.628H162.432L159.456 107.84C158.82 109.376 158.4 109.784 157.296 109.784ZM165.87 107.144C164.046 107.144 162.954 105.896 162.954 103.82C162.954 101.66 164.082 100.472 165.87 100.472C167.694 100.472 168.786 101.744 168.786 103.82C168.786 105.968 167.658 107.144 165.87 107.144ZM165.87 106.232C167.058 106.232 167.706 105.38 167.706 103.82C167.706 102.272 167.046 101.384 165.87 101.384C164.682 101.384 164.034 102.248 164.034 103.82C164.034 105.356 164.694 106.232 165.87 106.232ZM174.201 104.396V100.628H175.257V107H174.201V106.136C173.769 106.808 173.097 107.144 172.269 107.144C170.937 107.144 170.145 106.364 170.145 104.888V100.628H171.201V104.672C171.201 105.632 171.621 106.244 172.557 106.244C173.589 106.244 174.201 105.308 174.201 104.396ZM22.108 118.824H21.052C20.884 117.852 20.236 117.384 19.396 117.384C18.22 117.384 17.596 118.248 17.596 119.82C17.596 121.368 18.256 122.244 19.432 122.244C20.284 122.244 20.896 121.788 21.1 120.876H22.156C21.868 122.46 20.8 123.144 19.408 123.144C17.596 123.144 16.516 121.884 16.516 119.82C16.516 117.66 17.62 116.472 19.396 116.472C20.8 116.472 21.904 117.264 22.108 118.824ZM24.4331 118.704H23.3771C23.5811 117.3 24.5051 116.472 26.0651 116.472C27.7691 116.472 28.5971 117.468 28.5971 118.956V121.464C28.5971 122.196 28.6571 122.652 28.8251 123H27.7091C27.5891 122.748 27.5531 122.376 27.5411 121.992C27.0011 122.796 26.1371 123.144 25.3691 123.144C24.0491 123.144 23.1611 122.532 23.1611 121.32C23.1611 120.444 23.6411 119.808 24.5771 119.496C25.4411 119.208 26.3171 119.136 27.5411 119.124V118.98C27.5411 117.948 27.0611 117.384 25.9691 117.384C25.0571 117.384 24.5651 117.888 24.4331 118.704ZM24.2411 121.296C24.2411 121.884 24.7331 122.232 25.4771 122.232C26.6531 122.232 27.5411 121.308 27.5411 120.216V119.916C24.8291 119.94 24.2411 120.516 24.2411 121.296ZM30.3283 123V116.628H31.3843V117.492C31.8163 116.82 32.5123 116.472 33.3523 116.472C34.7083 116.472 35.5123 117.264 35.5123 118.74V123H34.4563V118.956C34.4563 117.996 34.0243 117.372 33.0643 117.372C32.0083 117.372 31.3843 118.32 31.3843 119.232V123H30.3283ZM40.3778 118.26C40.3778 120.036 44.5178 118.572 44.5178 121.2C44.5178 122.388 43.4618 123.144 41.9618 123.144C40.4498 123.144 39.3938 122.424 39.1538 120.924H40.2098C40.3538 121.812 41.0138 122.304 41.9978 122.304C42.9578 122.304 43.4618 121.872 43.4618 121.272C43.4618 119.532 39.3698 120.972 39.3698 118.332C39.3698 117.36 40.1258 116.472 41.6858 116.472C43.0658 116.472 44.0858 117.12 44.2898 118.704H43.2338C43.0778 117.708 42.5258 117.336 41.6258 117.336C40.8338 117.336 40.3778 117.732 40.3778 118.26ZM51.2816 120.924C50.9336 122.412 49.8656 123.144 48.4136 123.144C46.5656 123.144 45.4496 121.896 45.4496 119.82C45.4496 117.66 46.5656 116.472 48.3536 116.472C50.1536 116.472 51.2336 117.708 51.2336 119.736V120H46.5296C46.5896 121.428 47.2616 122.232 48.4136 122.232C49.3136 122.232 49.9496 121.8 50.1776 120.924H51.2816ZM48.3536 117.384C47.3336 117.384 46.7216 118.02 46.5656 119.208H50.1296C49.9856 118.032 49.3496 117.384 48.3536 117.384ZM57.9088 118.824H56.8528C56.6848 117.852 56.0368 117.384 55.1968 117.384C54.0208 117.384 53.3968 118.248 53.3968 119.82C53.3968 121.368 54.0568 122.244 55.2328 122.244C56.0848 122.244 56.6968 121.788 56.9008 120.876H57.9568C57.6688 122.46 56.6008 123.144 55.2088 123.144C53.3968 123.144 52.3168 121.884 52.3168 119.82C52.3168 117.66 53.4208 116.472 55.1968 116.472C56.6008 116.472 57.7048 117.264 57.9088 118.824ZM63.3179 120.396V116.628H64.3739V123H63.3179V122.136C62.8859 122.808 62.2139 123.144 61.3859 123.144C60.0539 123.144 59.2619 122.364 59.2619 120.888V116.628H60.3179V120.672C60.3179 121.632 60.7379 122.244 61.6739 122.244C62.7059 122.244 63.3179 121.308 63.3179 120.396ZM66.0588 123V116.628H67.1148V117.612C67.5468 116.832 68.2308 116.472 68.9988 116.472C69.2508 116.472 69.4788 116.532 69.5988 116.628V117.576C69.4188 117.516 69.1908 117.492 68.9388 117.492C67.6668 117.492 67.1148 118.284 67.1148 119.436V123H66.0588ZM75.9261 120.924C75.5781 122.412 74.5101 123.144 73.0581 123.144C71.2101 123.144 70.0941 121.896 70.0941 119.82C70.0941 117.66 71.2101 116.472 72.9981 116.472C74.7981 116.472 75.8781 117.708 75.8781 119.736V120H71.1741C71.2341 121.428 71.9061 122.232 73.0581 122.232C73.9581 122.232 74.5941 121.8 74.8221 120.924H75.9261ZM72.9981 117.384C71.9781 117.384 71.3661 118.02 71.2101 119.208H74.7741C74.6301 118.032 73.9941 117.384 72.9981 117.384ZM77.2853 123V114.36H78.3413V123H77.2853ZM80.3038 125.784C80.0638 125.784 79.8118 125.724 79.6798 125.688V124.872H80.0038C80.7838 124.872 80.9998 124.716 81.6238 123.288L81.8398 122.796L79.2358 116.628H80.3758L82.1038 120.84L82.3918 121.692L82.6798 120.84L84.3598 116.628H85.4398L82.4638 123.84C81.8278 125.376 81.4078 125.784 80.3038 125.784ZM88.7463 123V114.36H89.8023V123H88.7463ZM94.0687 123.144C92.2447 123.144 91.1527 121.896 91.1527 119.82C91.1527 117.66 92.2807 116.472 94.0687 116.472C95.8927 116.472 96.9847 117.744 96.9847 119.82C96.9847 121.968 95.8567 123.144 94.0687 123.144ZM94.0687 122.232C95.2567 122.232 95.9047 121.38 95.9047 119.82C95.9047 118.272 95.2447 117.384 94.0687 117.384C92.8807 117.384 92.2327 118.248 92.2327 119.82C92.2327 121.356 92.8927 122.232 94.0687 122.232ZM100.612 123.048C98.9919 123.048 98.0199 121.812 98.0199 119.772C98.0199 117.636 99.0159 116.472 100.612 116.472C101.464 116.472 102.1 116.772 102.52 117.324V116.628H103.576V123.192C103.576 124.968 102.436 125.796 100.972 125.796C99.4719 125.796 98.4159 125.076 98.1879 123.624H99.2439C99.3759 124.464 100.036 124.92 100.96 124.92C101.896 124.92 102.52 124.416 102.52 123.228V122.136C102.076 122.736 101.428 123.048 100.612 123.048ZM100.804 122.136C101.92 122.136 102.52 121.296 102.52 119.76C102.52 118.26 101.896 117.384 100.804 117.384C99.6999 117.384 99.0999 118.224 99.0999 119.772C99.0999 121.272 99.7119 122.136 100.804 122.136ZM107.672 115.776V114.36H108.728V115.776H107.672ZM107.672 123V116.628H108.728V123H107.672ZM110.403 123V116.628H111.459V117.492C111.891 116.82 112.587 116.472 113.427 116.472C114.783 116.472 115.587 117.264 115.587 118.74V123H114.531V118.956C114.531 117.996 114.099 117.372 113.139 117.372C112.083 117.372 111.459 118.32 111.459 119.232V123H110.403ZM118.892 117.468V116.628H119.78V116.196C119.78 114.852 120.332 114.216 121.508 114.216C121.772 114.216 121.988 114.264 122.096 114.312V115.068H121.988C121.064 115.068 120.836 115.428 120.836 116.196V116.628H122.096V117.468H120.836V123H119.78V117.468H118.892ZM122.942 123V116.628H123.998V117.612C124.43 116.832 125.114 116.472 125.882 116.472C126.134 116.472 126.362 116.532 126.482 116.628V117.576C126.302 117.516 126.074 117.492 125.822 117.492C124.55 117.492 123.998 118.284 123.998 119.436V123H122.942ZM129.893 123.144C128.069 123.144 126.977 121.896 126.977 119.82C126.977 117.66 128.105 116.472 129.893 116.472C131.717 116.472 132.809 117.744 132.809 119.82C132.809 121.968 131.681 123.144 129.893 123.144ZM129.893 122.232C131.081 122.232 131.729 121.38 131.729 119.82C131.729 118.272 131.069 117.384 129.893 117.384C128.705 117.384 128.057 118.248 128.057 119.82C128.057 121.356 128.717 122.232 129.893 122.232ZM134.168 123V116.628H135.224V117.444C135.632 116.796 136.268 116.472 137.048 116.472C137.924 116.472 138.56 116.856 138.86 117.6C139.28 116.856 139.976 116.472 140.828 116.472C142.124 116.472 142.904 117.264 142.904 118.74V123H141.848V118.956C141.848 117.996 141.464 117.372 140.6 117.372C139.64 117.372 139.064 118.32 139.064 119.232V123H138.008V118.956C138.008 117.996 137.624 117.372 136.76 117.372C135.8 117.372 135.224 118.32 135.224 119.232V123H134.168ZM147.96 118.704H146.904C147.108 117.3 148.032 116.472 149.592 116.472C151.296 116.472 152.124 117.468 152.124 118.956V121.464C152.124 122.196 152.184 122.652 152.352 123H151.236C151.116 122.748 151.08 122.376 151.068 121.992C150.528 122.796 149.664 123.144 148.896 123.144C147.576 123.144 146.688 122.532 146.688 121.32C146.688 120.444 147.168 119.808 148.104 119.496C148.968 119.208 149.844 119.136 151.068 119.124V118.98C151.068 117.948 150.588 117.384 149.496 117.384C148.584 117.384 148.092 117.888 147.96 118.704ZM147.768 121.296C147.768 121.884 148.26 122.232 149.004 122.232C150.18 122.232 151.068 121.308 151.068 120.216V119.916C148.356 119.94 147.768 120.516 147.768 121.296ZM153.856 123V116.628H154.912V117.492C155.344 116.82 156.04 116.472 156.88 116.472C158.236 116.472 159.04 117.264 159.04 118.74V123H157.984V118.956C157.984 117.996 157.552 117.372 156.592 117.372C155.536 117.372 154.912 118.32 154.912 119.232V123H153.856ZM160.776 125.784C160.536 125.784 160.284 125.724 160.152 125.688V124.872H160.476C161.256 124.872 161.472 124.716 162.096 123.288L162.312 122.796L159.708 116.628H160.848L162.576 120.84L162.864 121.692L163.152 120.84L164.832 116.628H165.912L162.936 123.84C162.3 125.376 161.88 125.784 160.776 125.784ZM17.896 139H16.84V130.36H17.896V133.42C18.316 132.82 18.928 132.472 19.684 132.472C21.376 132.472 22.396 133.72 22.396 135.796C22.396 137.956 21.352 139.144 19.684 139.144C18.928 139.144 18.316 138.832 17.896 138.244V139ZM19.612 133.384C18.496 133.384 17.896 134.236 17.896 135.796C17.896 137.344 18.52 138.232 19.612 138.232C20.716 138.232 21.316 137.368 21.316 135.796C21.316 134.26 20.692 133.384 19.612 133.384ZM23.7541 139V132.628H24.8101V133.612C25.2421 132.832 25.9261 132.472 26.6941 132.472C26.9461 132.472 27.1741 132.532 27.2941 132.628V133.576C27.1141 133.516 26.8861 133.492 26.6341 133.492C25.3621 133.492 24.8101 134.284 24.8101 135.436V139H23.7541ZM30.7054 139.144C28.8814 139.144 27.7894 137.896 27.7894 135.82C27.7894 133.66 28.9174 132.472 30.7054 132.472C32.5294 132.472 33.6214 133.744 33.6214 135.82C33.6214 137.968 32.4934 139.144 30.7054 139.144ZM30.7054 138.232C31.8934 138.232 32.5414 137.38 32.5414 135.82C32.5414 134.272 31.8814 133.384 30.7054 133.384C29.5174 133.384 28.8694 134.248 28.8694 135.82C28.8694 137.356 29.5294 138.232 30.7054 138.232ZM40.3834 139L39.0034 134.236L38.8594 133.516L38.7154 134.236L37.3474 139H36.0394L34.1434 132.628H35.2834L36.5914 137.572L36.7474 138.22L36.9034 137.572L38.3554 132.628H39.4954L40.9474 137.572L41.0914 138.196L41.2234 137.572L42.5314 132.628H43.6234L41.7154 139H40.3834ZM45.3583 134.26C45.3583 136.036 49.4983 134.572 49.4983 137.2C49.4983 138.388 48.4423 139.144 46.9423 139.144C45.4303 139.144 44.3743 138.424 44.1343 136.924H45.1903C45.3343 137.812 45.9943 138.304 46.9783 138.304C47.9383 138.304 48.4423 137.872 48.4423 137.272C48.4423 135.532 44.3503 136.972 44.3503 134.332C44.3503 133.36 45.1063 132.472 46.6663 132.472C48.0463 132.472 49.0663 133.12 49.2703 134.704H48.2143C48.0583 133.708 47.5063 133.336 46.6063 133.336C45.8143 133.336 45.3583 133.732 45.3583 134.26ZM56.2621 136.924C55.9141 138.412 54.8461 139.144 53.3941 139.144C51.5461 139.144 50.4301 137.896 50.4301 135.82C50.4301 133.66 51.5461 132.472 53.3341 132.472C55.1341 132.472 56.2141 133.708 56.2141 135.736V136H51.5101C51.5701 137.428 52.2421 138.232 53.3941 138.232C54.2941 138.232 54.9301 137.8 55.1581 136.924H56.2621ZM53.3341 133.384C52.3141 133.384 51.7021 134.02 51.5461 135.208H55.1101C54.9661 134.032 54.3301 133.384 53.3341 133.384ZM57.6213 139V132.628H58.6773V133.612C59.1093 132.832 59.7933 132.472 60.5613 132.472C60.8133 132.472 61.0413 132.532 61.1613 132.628V133.576C60.9813 133.516 60.7533 133.492 60.5013 133.492C59.2293 133.492 58.6773 134.284 58.6773 135.436V139H57.6213ZM60.7825 139V137.704H62.0785V138.4C62.0785 139.516 61.8985 140.2 61.4785 140.98H60.8785C61.1545 140.26 61.3105 139.744 61.3105 139H60.7825ZM67.0073 134.704H65.9513C66.1553 133.3 67.0793 132.472 68.6393 132.472C70.3433 132.472 71.1713 133.468 71.1713 134.956V137.464C71.1713 138.196 71.2313 138.652 71.3993 139H70.2833C70.1633 138.748 70.1273 138.376 70.1153 137.992C69.5753 138.796 68.7113 139.144 67.9433 139.144C66.6233 139.144 65.7353 138.532 65.7353 137.32C65.7353 136.444 66.2153 135.808 67.1513 135.496C68.0153 135.208 68.8913 135.136 70.1153 135.124V134.98C70.1153 133.948 69.6353 133.384 68.5433 133.384C67.6313 133.384 67.1393 133.888 67.0073 134.704ZM66.8153 137.296C66.8153 137.884 67.3073 138.232 68.0513 138.232C69.2273 138.232 70.1153 137.308 70.1153 136.216V135.916C67.4033 135.94 66.8153 136.516 66.8153 137.296ZM72.9025 139V132.628H73.9585V133.492C74.3905 132.82 75.0865 132.472 75.9265 132.472C77.2825 132.472 78.0865 133.264 78.0865 134.74V139H77.0305V134.956C77.0305 133.996 76.5985 133.372 75.6385 133.372C74.5825 133.372 73.9585 134.32 73.9585 135.232V139H72.9025ZM79.8233 141.784C79.5833 141.784 79.3313 141.724 79.1993 141.688V140.872H79.5233C80.3033 140.872 80.5193 140.716 81.1433 139.288L81.3593 138.796L78.7553 132.628H79.8953L81.6233 136.84L81.9113 137.692L82.1993 136.84L83.8793 132.628H84.9593L81.9833 139.84C81.3473 141.376 80.9273 141.784 79.8233 141.784ZM91.3834 139L90.0034 134.236L89.8594 133.516L89.7154 134.236L88.3474 139H87.0394L85.1434 132.628H86.2834L87.5914 137.572L87.7474 138.22L87.9034 137.572L89.3554 132.628H90.4954L91.9474 137.572L92.0914 138.196L92.2234 137.572L93.5314 132.628H94.6234L92.7154 139H91.3834ZM95.5783 139V130.36H96.6343V133.492C97.0663 132.82 97.7623 132.472 98.6023 132.472C99.9583 132.472 100.762 133.264 100.762 134.74V139H99.7063V134.956C99.7063 133.996 99.2743 133.372 98.3143 133.372C97.2583 133.372 96.6343 134.32 96.6343 135.232V139H95.5783ZM107.953 136.924C107.605 138.412 106.537 139.144 105.085 139.144C103.237 139.144 102.121 137.896 102.121 135.82C102.121 133.66 103.237 132.472 105.025 132.472C106.825 132.472 107.905 133.708 107.905 135.736V136H103.201C103.261 137.428 103.933 138.232 105.085 138.232C105.985 138.232 106.621 137.8 106.849 136.924H107.953ZM105.025 133.384C104.005 133.384 103.393 134.02 103.237 135.208H106.801C106.657 134.032 106.021 133.384 105.025 133.384ZM109.313 139V132.628H110.369V133.612C110.801 132.832 111.485 132.472 112.253 132.472C112.505 132.472 112.733 132.532 112.853 132.628V133.576C112.673 133.516 112.445 133.492 112.193 133.492C110.921 133.492 110.369 134.284 110.369 135.436V139H109.313ZM119.18 136.924C118.832 138.412 117.764 139.144 116.312 139.144C114.464 139.144 113.348 137.896 113.348 135.82C113.348 133.66 114.464 132.472 116.252 132.472C118.052 132.472 119.132 133.708 119.132 135.736V136H114.428C114.488 137.428 115.16 138.232 116.312 138.232C117.212 138.232 117.848 137.8 118.076 136.924H119.18ZM116.252 133.384C115.232 133.384 114.62 134.02 114.464 135.208H118.028C117.884 134.032 117.248 133.384 116.252 133.384ZM122.942 131.776V130.36H123.998V131.776H122.942ZM122.942 139V132.628H123.998V139H122.942ZM125.672 139V132.628H126.728V133.492C127.16 132.82 127.856 132.472 128.696 132.472C130.052 132.472 130.856 133.264 130.856 134.74V139H129.8V134.956C129.8 133.996 129.368 133.372 128.408 133.372C127.352 133.372 126.728 134.32 126.728 135.232V139H125.672ZM135.086 137.164V133.468H134.198V132.628H135.086V131.164H136.142V132.628H137.546V133.468H136.142V137.164C136.142 137.932 136.37 138.292 137.306 138.292H137.522V139.048C137.402 139.108 137.138 139.144 136.838 139.144C135.65 139.144 135.086 138.508 135.086 137.164ZM138.551 139V130.36H139.607V133.492C140.039 132.82 140.735 132.472 141.575 132.472C142.931 132.472 143.735 133.264 143.735 134.74V139H142.679V134.956C142.679 133.996 142.247 133.372 141.287 133.372C140.231 133.372 139.607 134.32 139.607 135.232V139H138.551ZM150.926 136.924C150.578 138.412 149.51 139.144 148.058 139.144C146.21 139.144 145.094 137.896 145.094 135.82C145.094 133.66 146.21 132.472 147.998 132.472C149.798 132.472 150.878 133.708 150.878 135.736V136H146.174C146.234 137.428 146.906 138.232 148.058 138.232C148.958 138.232 149.594 137.8 149.822 136.924H150.926ZM147.998 133.384C146.978 133.384 146.366 134.02 146.21 135.208H149.774C149.63 134.032 148.994 133.384 147.998 133.384ZM22.36 155L20.98 150.236L20.836 149.516L20.692 150.236L19.324 155H18.016L16.12 148.628H17.26L18.568 153.572L18.724 154.22L18.88 153.572L20.332 148.628H21.472L22.924 153.572L23.068 154.196L23.2 153.572L24.508 148.628H25.6L23.692 155H22.36ZM29.0883 155.144C27.2643 155.144 26.1723 153.896 26.1723 151.82C26.1723 149.66 27.3003 148.472 29.0883 148.472C30.9123 148.472 32.0043 149.744 32.0043 151.82C32.0043 153.968 30.8763 155.144 29.0883 155.144ZM29.0883 154.232C30.2763 154.232 30.9243 153.38 30.9243 151.82C30.9243 150.272 30.2643 149.384 29.0883 149.384C27.9003 149.384 27.2523 150.248 27.2523 151.82C27.2523 153.356 27.9123 154.232 29.0883 154.232ZM33.3634 155V148.628H34.4194V149.612C34.8514 148.832 35.5354 148.472 36.3034 148.472C36.5554 148.472 36.7834 148.532 36.9034 148.628V149.576C36.7234 149.516 36.4954 149.492 36.2434 149.492C34.9714 149.492 34.4194 150.284 34.4194 151.436V155H33.3634ZM37.84 155V146.36H38.896V155H37.84ZM42.9585 155.144C41.2665 155.144 40.2465 153.896 40.2465 151.82C40.2465 149.66 41.2905 148.472 42.9585 148.472C43.7145 148.472 44.3265 148.784 44.7465 149.372V146.36H45.8025V155H44.7465V154.196C44.3265 154.796 43.7145 155.144 42.9585 155.144ZM43.0305 154.232C44.1465 154.232 44.7465 153.38 44.7465 151.82C44.7465 150.272 44.1225 149.384 43.0305 149.384C41.9265 149.384 41.3265 150.248 41.3265 151.82C41.3265 153.356 41.9505 154.232 43.0305 154.232ZM47.3645 155V153.704H48.6605V155H47.3645Z" fill="#7C7D81"/>
<path d="M22.8795 23.0077C23.2979 23.0077 23.7203 23.0077 24.1388 23.0077C24.1701 23.0153 24.2014 23.0307 24.2366 23.0307C24.9914 23.0997 25.7149 23.28 26.4111 23.5677C29.3874 24.7951 31.0534 27.6756 30.9987 30.3951C30.9791 31.3923 30.8149 32.3551 30.3964 33.2564C29.2896 35.6575 27.4123 37.1151 24.7724 37.6214C24.5064 37.6712 24.2327 37.6981 23.9628 37.7326H23.0554C23.0242 37.7249 22.989 37.7134 22.9577 37.7096C22.1403 37.6559 21.3463 37.4833 20.5954 37.1534C18.1393 36.0795 16.6414 34.2422 16.1173 31.6493C16.0626 31.3885 16.0391 31.12 16 30.8553C16 30.5293 16 30.2033 16 29.8773C16.0078 29.8351 16.0235 29.7929 16.0274 29.7507C16.0939 28.9452 16.2816 28.1704 16.6218 27.4378C17.6974 25.1288 19.5003 23.6981 22.019 23.1419C22.3045 23.0805 22.5939 23.046 22.8795 23V23.0077ZM25.9848 32.5315C26.1882 31.0855 26.1921 29.651 25.9848 28.2164H21.0022C20.7988 29.6586 20.7949 31.0932 21.0022 32.5315H25.9848ZM26.8765 32.52C26.9078 32.5277 26.9195 32.5315 26.9352 32.5315C27.8386 32.5315 28.7381 32.5315 29.6416 32.5315C29.6846 32.5315 29.7472 32.474 29.7628 32.4279C30.2243 31.0663 30.2243 29.7008 29.7824 28.3353C29.7511 28.2356 29.7042 28.2011 29.5986 28.2049C28.7342 28.2088 27.8738 28.2049 27.0095 28.2049C26.9664 28.2049 26.9273 28.2088 26.8765 28.2126C27.0681 29.6548 27.0681 31.0816 26.8765 32.5162V32.52ZM20.1144 32.5277C19.9227 31.0893 19.9227 29.6548 20.1144 28.2164C20.0792 28.2126 20.0557 28.2049 20.0322 28.2049C19.1444 28.2049 18.2566 28.2049 17.3689 28.2049C17.2789 28.2049 17.2554 28.2433 17.232 28.3162C16.7822 29.6816 16.7822 31.0471 17.232 32.4126C17.2672 32.5123 17.3141 32.5392 17.4158 32.5392C18.2684 32.5392 19.1249 32.5392 19.9775 32.5392C20.0205 32.5392 20.0635 32.5353 20.1183 32.5315L20.1144 32.5277ZM25.8166 27.3342C25.7931 27.2269 25.7697 27.1271 25.7462 27.0312C25.5389 26.2334 25.2652 25.4663 24.7919 24.7759C24.5886 24.4805 24.3539 24.2121 24.0332 24.0279C23.7008 23.8362 23.3605 23.817 23.0163 23.9896C22.6643 24.1699 22.4101 24.4537 22.195 24.7682C21.6749 25.5277 21.3933 26.3792 21.1821 27.2614C21.1782 27.2805 21.1821 27.3074 21.186 27.3304H25.8166V27.3342ZM21.1821 33.4099C21.1821 33.4444 21.1821 33.4636 21.1821 33.4827C21.3659 34.2575 21.6162 35.0132 22.0229 35.7074C22.242 36.0795 22.5001 36.4208 22.8677 36.6663C23.2706 36.9348 23.7242 36.931 24.1271 36.6625C24.4008 36.4784 24.612 36.2367 24.7958 35.9682C25.2652 35.2778 25.5389 34.5107 25.7462 33.7129C25.7697 33.617 25.7931 33.5211 25.8166 33.4137H21.1821V33.4099ZM29.3209 27.3342C28.9845 26.2027 26.634 24.2888 25.4412 24.1737C26.1217 25.1326 26.4698 26.2142 26.7201 27.3342H29.3209ZM21.5419 24.1814C20.2552 24.3847 17.8695 26.3408 17.6856 27.3381H20.2669C20.5172 26.2219 20.8614 25.1479 21.5419 24.1814ZM26.7201 33.406C26.4737 34.5184 26.1256 35.5923 25.4372 36.5742C26.5323 36.2329 27.4475 35.6806 28.2219 34.9058C28.6638 34.4647 29.0315 33.9737 29.3287 33.4099H26.7161L26.7201 33.406ZM20.2669 33.4137H17.6778C18.2097 34.6871 20.3569 36.4285 21.5262 36.5436C20.8653 35.5962 20.5172 34.5299 20.2669 33.4137Z" fill="#7C7D81"/>
<rect x="40.25" y="171" width="34.2881" height="29.75" rx="8" fill="#FFB806"/>
<path d="M24 171.5H66.375C70.5171 171.5 73.875 174.858 73.875 179V192.75C73.875 196.892 70.5171 200.25 66.375 200.25H24C19.8579 200.25 16.5 196.892 16.5 192.75V179L16.5098 178.614C16.7105 174.651 19.9872 171.5 24 171.5Z" stroke="#7C7D81"/>
<path d="M52.9519 190.182C50.7819 190.182 49.4659 188.712 49.4659 186.276C49.4659 183.742 50.8239 182.342 52.9519 182.342C55.1219 182.342 56.4379 183.84 56.4379 186.276C56.4379 188.796 55.0799 190.182 52.9519 190.182ZM52.9519 188.922C54.2259 188.922 54.9119 187.998 54.9119 186.276C54.9119 184.568 54.2119 183.602 52.9519 183.602C51.6919 183.602 50.9919 184.54 50.9919 186.276C50.9919 187.97 51.6919 188.922 52.9519 188.922ZM57.8963 190V182.538H59.3943V183.532C59.8983 182.734 60.6823 182.342 61.6483 182.342C63.2023 182.342 64.1683 183.252 64.1683 185.016V190H62.6843V185.324C62.6843 184.246 62.2083 183.588 61.1863 183.588C60.0663 183.588 59.3943 184.582 59.3943 185.618V190H57.8963Z" fill="#101010"/>
</svg>
