<svg width="194" height="218" viewBox="0 0 194 218" fill="none" xmlns="http://www.w3.org/2000/svg">
<path d="M155.225 217H21C9.9543 217 1 208.046 1 197V21C1 9.95431 9.9543 1 21 1H173C184.046 1 193 9.95429 193 21V154.883C193 159.071 191.686 163.152 189.242 166.553L178.982 180.833C176.539 184.234 175.225 188.316 175.225 192.503V197C175.225 208.046 166.27 217 155.225 217Z" stroke="#4A4F5A"/>
<path d="M22.8795 23.0077C23.2979 23.0077 23.7203 23.0077 24.1388 23.0077C24.1701 23.0153 24.2014 23.0307 24.2366 23.0307C24.9914 23.0997 25.7149 23.28 26.4111 23.5677C29.3874 24.7951 31.0534 27.6756 30.9987 30.3951C30.9791 31.3923 30.8149 32.3551 30.3964 33.2564C29.2896 35.6575 27.4123 37.1151 24.7724 37.6214C24.5064 37.6712 24.2327 37.6981 23.9628 37.7326H23.0554C23.0242 37.7249 22.989 37.7134 22.9577 37.7096C22.1403 37.6559 21.3463 37.4833 20.5954 37.1534C18.1393 36.0795 16.6414 34.2422 16.1173 31.6493C16.0626 31.3885 16.0391 31.12 16 30.8553C16 30.5293 16 30.2033 16 29.8773C16.0078 29.8351 16.0235 29.7929 16.0274 29.7507C16.0939 28.9452 16.2816 28.1704 16.6218 27.4378C17.6974 25.1288 19.5003 23.6981 22.019 23.1419C22.3045 23.0805 22.5939 23.046 22.8795 23V23.0077ZM25.9848 32.5315C26.1882 31.0855 26.1921 29.651 25.9848 28.2164H21.0022C20.7988 29.6586 20.7949 31.0932 21.0022 32.5315H25.9848ZM26.8765 32.52C26.9078 32.5277 26.9195 32.5315 26.9352 32.5315C27.8386 32.5315 28.7381 32.5315 29.6416 32.5315C29.6846 32.5315 29.7472 32.474 29.7628 32.4279C30.2243 31.0663 30.2243 29.7008 29.7824 28.3353C29.7511 28.2356 29.7042 28.2011 29.5986 28.2049C28.7342 28.2088 27.8738 28.2049 27.0095 28.2049C26.9664 28.2049 26.9273 28.2088 26.8765 28.2126C27.0681 29.6548 27.0681 31.0816 26.8765 32.5162V32.52ZM20.1144 32.5277C19.9227 31.0893 19.9227 29.6548 20.1144 28.2164C20.0792 28.2126 20.0557 28.2049 20.0322 28.2049C19.1444 28.2049 18.2566 28.2049 17.3689 28.2049C17.2789 28.2049 17.2554 28.2433 17.232 28.3162C16.7822 29.6816 16.7822 31.0471 17.232 32.4126C17.2672 32.5123 17.3141 32.5392 17.4158 32.5392C18.2684 32.5392 19.1249 32.5392 19.9775 32.5392C20.0205 32.5392 20.0635 32.5353 20.1183 32.5315L20.1144 32.5277ZM25.8166 27.3342C25.7931 27.2269 25.7697 27.1271 25.7462 27.0312C25.5389 26.2334 25.2652 25.4663 24.7919 24.7759C24.5886 24.4805 24.3539 24.2121 24.0332 24.0279C23.7008 23.8362 23.3605 23.817 23.0163 23.9896C22.6643 24.1699 22.4101 24.4537 22.195 24.7682C21.6749 25.5277 21.3933 26.3792 21.1821 27.2614C21.1782 27.2805 21.1821 27.3074 21.186 27.3304H25.8166V27.3342ZM21.1821 33.4099C21.1821 33.4444 21.1821 33.4636 21.1821 33.4827C21.3659 34.2575 21.6162 35.0132 22.0229 35.7074C22.242 36.0795 22.5001 36.4208 22.8677 36.6663C23.2706 36.9348 23.7242 36.931 24.1271 36.6625C24.4008 36.4784 24.612 36.2367 24.7958 35.9682C25.2652 35.2778 25.5389 34.5107 25.7462 33.7129C25.7697 33.617 25.7931 33.5211 25.8166 33.4137H21.1821V33.4099ZM29.3209 27.3342C28.9845 26.2027 26.634 24.2888 25.4412 24.1737C26.1217 25.1326 26.4698 26.2142 26.7201 27.3342H29.3209ZM21.5419 24.1814C20.2552 24.3847 17.8695 26.3408 17.6856 27.3381H20.2669C20.5172 26.2219 20.8614 25.1479 21.5419 24.1814ZM26.7201 33.406C26.4737 34.5184 26.1256 35.5923 25.4372 36.5742C26.5323 36.2329 27.4475 35.6806 28.2219 34.9058C28.6638 34.4647 29.0315 33.9737 29.3287 33.4099H26.7161L26.7201 33.406ZM20.2669 33.4137H17.6778C18.2097 34.6871 20.3569 36.4285 21.5262 36.5436C20.8653 35.5962 20.5172 34.5299 20.2669 33.4137Z" fill="#7C7D81"/>
<rect x="40.25" y="171" width="34.2881" height="29.75" rx="8" fill="#FFB806"/>
<path d="M24 171.5H66.375C70.5171 171.5 73.875 174.858 73.875 179V192.75C73.875 196.892 70.5171 200.25 66.375 200.25H24C19.8579 200.25 16.5 196.892 16.5 192.75V179L16.5098 178.614C16.7105 174.651 19.9872 171.5 24 171.5Z" stroke="#7C7D81"/>
<path d="M52.9519 190.182C50.7819 190.182 49.4659 188.712 49.4659 186.276C49.4659 183.742 50.8239 182.342 52.9519 182.342C55.1219 182.342 56.4379 183.84 56.4379 186.276C56.4379 188.796 55.0799 190.182 52.9519 190.182ZM52.9519 188.922C54.2259 188.922 54.9119 187.998 54.9119 186.276C54.9119 184.568 54.2119 183.602 52.9519 183.602C51.6919 183.602 50.9919 184.54 50.9919 186.276C50.9919 187.97 51.6919 188.922 52.9519 188.922ZM57.8963 190V182.538H59.3943V183.532C59.8983 182.734 60.6823 182.342 61.6483 182.342C63.2023 182.342 64.1683 183.252 64.1683 185.016V190H62.6843V185.324C62.6843 184.246 62.2083 183.588 61.1863 183.588C60.0663 183.588 59.3943 184.582 59.3943 185.618V190H57.8963Z" fill="#101010"/>
</svg>
