<svg width="20" height="21" viewBox="0 0 20 21" fill="none" xmlns="http://www.w3.org/2000/svg">
<path d="M1.05105 10.4495C1.05105 15.5708 5.03278 19.5654 10.0865 19.6166C15.1913 19.6166 19.2241 15.6732 19.2241 10.5519C19.2241 5.43059 15.2423 1.38477 10.1886 1.38477C5.13487 1.38477 1.05105 5.32816 1 10.5007L1.05105 10.4495Z" stroke="#7C7D81" stroke-width="1.5" stroke-miterlimit="10"/>
<path d="M12.0262 6.45442C11.5158 7.1714 11.4647 7.99081 12.0262 8.50293C12.5367 9.06628 13.3535 9.06628 14.1702 8.50293C14.936 9.78326 14.8849 12.3951 12.9451 13.9315C11.2095 15.3143 8.55498 15.1606 6.97249 13.6242C5.39001 12.0366 5.23687 9.42477 6.61516 7.63231C8.14659 5.68622 10.75 5.68622 12.0262 6.4032V6.45442Z" fill="#7C7D81"/>
</svg>
