<svg width="59" height="30" viewBox="0 0 59 30" fill="none" xmlns="http://www.w3.org/2000/svg">
<rect x="0.25" width="34.2881" height="29.75" rx="8" fill="#7C7D81"/>
<path d="M8 0.5H50.375C54.5171 0.5 57.875 3.85786 57.875 8V21.75C57.875 25.8921 54.5171 29.25 50.375 29.25H8C3.85786 29.25 0.5 25.8921 0.5 21.75V8C0.5 3.85786 3.85786 0.5 8 0.5Z" stroke="#7C7D81"/>
<path d="M12.9929 19.182C10.8229 19.182 9.50694 17.712 9.50694 15.276C9.50694 12.742 10.8649 11.342 12.9929 11.342C15.1629 11.342 16.4789 12.84 16.4789 15.276C16.4789 17.796 15.1209 19.182 12.9929 19.182ZM12.9929 17.922C14.2669 17.922 14.9529 16.998 14.9529 15.276C14.9529 13.568 14.2529 12.602 12.9929 12.602C11.7329 12.602 11.0329 13.54 11.0329 15.276C11.0329 16.97 11.7329 17.922 12.9929 17.922ZM17.0973 12.7V11.538H18.1053V11.146C18.1053 9.522 18.7913 8.738 20.1913 8.738C20.5693 8.738 20.8633 8.808 21.0173 8.878V9.886H20.8773C19.8413 9.886 19.5893 10.306 19.5893 11.16V11.538H21.0173V12.7H19.5893V19H18.1053V12.7H17.0973ZM21.1032 12.7V11.538H22.1112V11.146C22.1112 9.522 22.7972 8.738 24.1972 8.738C24.5752 8.738 24.8692 8.808 25.0232 8.878V9.886H24.8832C23.8472 9.886 23.5952 10.306 23.5952 11.16V11.538H25.0232V12.7H23.5952V19H22.1112V12.7H21.1032Z" fill="#101010"/>
</svg>
