<svg width="59" height="30" viewBox="0 0 59 30" fill="none" xmlns="http://www.w3.org/2000/svg">
<rect x="24.25" width="34.2881" height="29.75" rx="8" fill="#FFB806"/>
<path d="M8 0.5H50.375C54.5171 0.5 57.875 3.85786 57.875 8V21.75C57.875 25.8921 54.5171 29.25 50.375 29.25H8C3.85786 29.25 0.5 25.8921 0.5 21.75V8C0.5 3.85786 3.85786 0.5 8 0.5Z" stroke="#7C7D81"/>
<path d="M36.9519 19.182C34.7819 19.182 33.4659 17.712 33.4659 15.276C33.4659 12.742 34.8239 11.342 36.9519 11.342C39.1219 11.342 40.4379 12.84 40.4379 15.276C40.4379 17.796 39.0799 19.182 36.9519 19.182ZM36.9519 17.922C38.2259 17.922 38.9119 16.998 38.9119 15.276C38.9119 13.568 38.2119 12.602 36.9519 12.602C35.6919 12.602 34.9919 13.54 34.9919 15.276C34.9919 16.97 35.6919 17.922 36.9519 17.922ZM41.8963 19V11.538H43.3943V12.532C43.8983 11.734 44.6823 11.342 45.6483 11.342C47.2023 11.342 48.1683 12.252 48.1683 14.016V19H46.6843V14.324C46.6843 13.246 46.2083 12.588 45.1863 12.588C44.0663 12.588 43.3943 13.582 43.3943 14.618V19H41.8963Z" fill="#101010"/>
</svg>
