<svg width="19" height="21" viewBox="0 0 19 21" fill="none" xmlns="http://www.w3.org/2000/svg">
<path d="M18.0632 10.6142C18.0632 11.7655 18.0632 12.8209 18.0632 13.9722C18.0632 15.4113 17.5238 16.4667 16.3551 17.1383C14.5571 18.2896 12.6693 19.4409 10.8713 20.4963C9.70261 21.1679 8.53391 21.1679 7.36523 20.4963C5.56726 19.345 3.76928 18.2896 1.97131 17.1383C0.80263 16.3708 0.17334 15.3154 0.17334 13.8763C0.17334 11.6696 0.17334 9.46292 0.17334 7.16031C0.17334 5.72118 0.80263 4.66579 1.97131 3.89825C3.76928 2.74694 5.56726 1.69158 7.36523 0.540273C8.53391 -0.131322 9.70261 -0.227264 10.8713 0.540273C12.6693 1.69158 14.5571 2.74694 16.3551 3.89825C17.5238 4.56985 18.0632 5.72118 18.0632 7.16031C18.0632 8.31162 18.0632 9.36698 18.0632 10.5183V10.6142ZM16.7147 10.6142C16.7147 9.4629 16.7147 8.31159 16.7147 7.25623C16.7147 6.39275 16.3551 5.72115 15.7258 5.33738C13.9279 4.18608 12.0399 3.03479 10.1521 1.88349C9.43288 1.49972 8.80365 1.49972 8.08446 1.88349C6.28649 3.03479 4.48843 4.09016 2.60056 5.24147C1.88137 5.72118 1.52182 6.39275 1.52182 7.25623C1.52182 9.4629 1.52182 11.7655 1.52182 13.9722C1.52182 14.8357 1.88137 15.5072 2.60056 15.9869C4.39853 17.1383 6.19659 18.1936 8.08446 19.3449C8.80365 19.8246 9.52275 19.7287 10.2419 19.3449C12.0399 18.1936 13.838 17.1383 15.7258 15.9869C16.445 15.5072 16.8046 14.9316 16.8046 14.0681C16.8046 12.9168 16.8046 11.8614 16.8046 10.7101L16.7147 10.6142Z" fill="#101010"/>
<path d="M9.16305 14.7404C7.00548 14.7404 5.29736 12.9174 5.29736 10.6148C5.29736 8.31221 7.00548 6.48926 9.16305 6.48926C11.3206 6.48926 13.0287 8.31221 13.0287 10.6148C13.0287 12.9174 11.3206 14.7404 9.16305 14.7404ZM11.6803 10.6148C11.6803 9.17569 10.6014 7.92839 9.16305 7.92839C7.81457 7.92839 6.64584 9.07974 6.64584 10.6148C6.64584 12.054 7.72467 13.3012 9.16305 13.3012C10.5115 13.3012 11.6803 12.1499 11.6803 10.6148Z" fill="#101010"/>
</svg>
