<svg width="20" height="21" viewBox="0 0 20 21" fill="none" xmlns="http://www.w3.org/2000/svg">
<path d="M19.0925 10.6139C19.0925 11.7659 19.0925 12.8209 19.0925 13.9719C19.0925 15.4109 18.5168 16.4669 17.2696 17.1379C15.3508 18.2899 13.336 19.4409 11.4171 20.4959C10.1699 21.1679 8.9226 21.1679 7.6754 20.4959C5.7565 19.3449 3.8377 18.2899 1.9188 17.1379C0.6716 16.3709 0 15.3149 0 13.8759C0 11.6699 0 9.46294 0 7.15994C0 5.72094 0.6716 4.66594 1.9188 3.89794C3.8377 2.74694 5.7565 1.69194 7.6754 0.539941C8.9226 -0.131059 10.1699 -0.227059 11.4171 0.539941C13.336 1.69194 15.3508 2.74694 17.2696 3.89794C18.5168 4.56994 19.0925 5.72094 19.0925 7.15994C19.0925 8.31194 19.0925 9.36694 19.0925 10.5179V10.6139ZM17.6534 10.6139C17.6534 9.46295 17.6534 8.31194 17.6534 7.25594C17.6534 6.39294 17.2696 5.72094 16.5981 5.33694C14.6792 4.18594 12.6643 3.03493 10.6496 1.88293C9.882 1.49993 9.2105 1.49993 8.443 1.88293C6.5241 3.03493 4.6052 4.08993 2.5904 5.24093C1.8229 5.72093 1.4391 6.39294 1.4391 7.25594C1.4391 9.46294 1.4391 11.7659 1.4391 13.9719C1.4391 14.8359 1.8229 15.5069 2.5904 15.9869C4.5092 17.1379 6.4282 18.1939 8.443 19.3449C9.2105 19.8249 9.9779 19.7289 10.7455 19.3449C12.6643 18.1939 14.5833 17.1379 16.5981 15.9869C17.3656 15.5069 17.7493 14.9319 17.7493 14.0679C17.7493 12.9169 17.7493 11.8609 17.7493 10.7099L17.6534 10.6139Z" fill="#FFB806"/>
<path d="M9.59411 14.74C7.29151 14.74 5.46851 12.917 5.46851 10.615C5.46851 8.31196 7.29151 6.48898 9.59411 6.48898C11.8967 6.48898 13.7196 8.31196 13.7196 10.615C13.7196 12.917 11.8967 14.74 9.59411 14.74ZM12.2805 10.615C12.2805 9.17596 11.1291 7.92798 9.59411 7.92798C8.15491 7.92798 6.90761 9.07996 6.90761 10.615C6.90761 12.054 8.05901 13.301 9.59411 13.301C11.0332 13.301 12.2805 12.15 12.2805 10.615Z" fill="#FFB806"/>
</svg>
