<svg width="240" height="1804" viewBox="0 0 240 1804" fill="none" xmlns="http://www.w3.org/2000/svg">
<path d="M239.999 1576.99C239.999 1577.71 239.979 1578.43 239.939 1579.15C239.894 1579.98 239.186 1580.61 238.359 1580.56C237.532 1580.52 236.899 1579.81 236.944 1578.98C236.981 1578.32 236.999 1577.66 236.999 1576.99C236.999 1576.16 237.671 1575.49 238.499 1575.49C239.327 1575.49 239.999 1576.16 239.999 1576.99ZM236.192 1593.7C235.832 1594.45 234.936 1594.76 234.189 1594.4C233.444 1594.04 233.13 1593.15 233.49 1592.4C234.065 1591.21 234.575 1589.98 235.016 1588.72C235.289 1587.94 236.145 1587.53 236.927 1587.8C237.709 1588.08 238.12 1588.93 237.847 1589.71C237.368 1591.08 236.815 1592.41 236.192 1593.7ZM227.15 1605.71C226.533 1606.26 225.584 1606.2 225.032 1605.59C224.48 1604.97 224.533 1604.02 225.15 1603.47C226.141 1602.58 227.082 1601.64 227.968 1600.65C228.52 1600.03 229.467 1599.98 230.085 1600.53C230.702 1601.09 230.755 1602.03 230.203 1602.65C229.243 1603.73 228.224 1604.74 227.15 1605.71ZM214.212 1613.35C213.43 1613.62 212.575 1613.21 212.301 1612.43C212.027 1611.65 212.439 1610.79 213.221 1610.52C214.48 1610.08 215.708 1609.57 216.898 1608.99C217.644 1608.63 218.54 1608.95 218.9 1609.69C219.26 1610.44 218.947 1611.33 218.201 1611.69C216.91 1612.32 215.579 1612.87 214.212 1613.35ZM199.447 1615.5L199.294 1615.49C198.538 1615.42 197.947 1614.78 197.947 1614C197.947 1613.17 198.619 1612.5 199.447 1612.5L201.488 1612.5C202.157 1612.5 202.822 1612.48 203.481 1612.45C204.309 1612.4 205.017 1613.03 205.063 1613.86C205.108 1614.69 204.475 1615.4 203.647 1615.44C202.933 1615.48 202.213 1615.5 201.488 1615.5L199.447 1615.5ZM185.163 1615.5C184.335 1615.5 183.663 1614.83 183.663 1614C183.663 1613.17 184.335 1612.5 185.163 1612.5L189.244 1612.5C190.073 1612.5 190.744 1613.17 190.744 1614C190.744 1614.83 190.072 1615.5 189.244 1615.5L185.163 1615.5ZM170.878 1615.5L170.725 1615.49C169.968 1615.42 169.378 1614.78 169.378 1614C169.378 1613.17 170.049 1612.5 170.878 1612.5L174.959 1612.5C175.787 1612.5 176.459 1613.17 176.459 1614C176.459 1614.83 175.787 1615.5 174.959 1615.5L170.878 1615.5ZM156.593 1615.5L156.439 1615.49C155.683 1615.42 155.093 1614.78 155.093 1614C155.093 1613.17 155.764 1612.5 156.593 1612.5L160.674 1612.5C161.502 1612.5 162.174 1613.17 162.174 1614C162.174 1614.83 161.502 1615.5 160.674 1615.5L156.593 1615.5ZM142.308 1615.5L142.154 1615.49C141.398 1615.42 140.808 1614.78 140.808 1614C140.808 1613.17 141.479 1612.5 142.308 1612.5L146.39 1612.5C147.218 1612.5 147.89 1613.17 147.89 1614C147.89 1614.83 147.218 1615.5 146.39 1615.5L142.308 1615.5ZM128.023 1615.5L127.87 1615.49C127.114 1615.42 126.524 1614.78 126.523 1614C126.523 1613.17 127.195 1612.5 128.023 1612.5L132.104 1612.5C132.933 1612.5 133.604 1613.17 133.604 1614C133.604 1614.83 132.933 1615.5 132.104 1615.5L128.023 1615.5ZM113.738 1615.5L113.585 1615.49C112.829 1615.42 112.238 1614.78 112.238 1614C112.238 1613.17 112.91 1612.5 113.738 1612.5L117.819 1612.5C118.648 1612.5 119.319 1613.17 119.319 1614C119.319 1614.83 118.648 1615.5 117.819 1615.5L113.738 1615.5ZM99.4531 1615.5L99.2998 1615.49C98.5435 1615.42 97.9532 1614.78 97.9531 1614C97.9531 1613.17 98.6248 1612.5 99.4531 1612.5L103.535 1612.5C104.363 1612.5 105.035 1613.17 105.035 1614C105.035 1614.83 104.363 1615.5 103.535 1615.5L99.4531 1615.5ZM85.168 1615.5L85.0146 1615.49C84.2585 1615.42 83.668 1614.78 83.668 1614C83.668 1613.17 84.3397 1612.5 85.168 1612.5L89.25 1612.5C90.0783 1612.5 90.75 1613.17 90.75 1614C90.7499 1614.83 90.0783 1615.5 89.25 1615.5L85.168 1615.5ZM70.8838 1615.5L70.7305 1615.49C69.974 1615.42 69.3838 1614.78 69.3838 1614C69.3838 1613.17 70.0554 1612.5 70.8838 1612.5L74.9648 1612.5C75.7933 1612.5 76.4648 1613.17 76.4648 1614C76.4648 1614.83 75.7932 1615.5 74.9648 1615.5L70.8838 1615.5ZM56.5986 1615.5C55.7702 1615.5 55.0987 1614.83 55.0986 1614C55.0986 1613.17 55.7702 1612.5 56.5986 1612.5L60.6797 1612.5C61.5081 1612.5 62.1797 1613.17 62.1797 1614C62.1796 1614.83 61.5081 1615.5 60.6797 1615.5L56.5986 1615.5ZM42.3135 1615.5L42.1602 1615.49C41.4039 1615.42 40.8135 1614.78 40.8135 1614C40.8135 1613.17 41.4852 1612.5 42.3135 1612.5L46.3955 1612.5C47.2238 1612.5 47.8955 1613.17 47.8955 1614C47.8955 1614.83 47.2237 1615.5 46.3955 1615.5L42.3135 1615.5ZM28.0293 1615.5L27.875 1615.49C27.1188 1615.42 26.5293 1614.78 26.5293 1614C26.5293 1613.17 27.2009 1612.5 28.0293 1612.5L32.1104 1612.5C32.9387 1612.5 33.6104 1613.17 33.6104 1614C33.6103 1614.83 32.9387 1615.5 32.1104 1615.5L28.0293 1615.5ZM13.7441 1615.5L13.5908 1615.49C12.8343 1615.42 12.2441 1614.78 12.2441 1614C12.2441 1613.17 12.9157 1612.5 13.7441 1612.5L17.8252 1612.5C18.6536 1612.5 19.3252 1613.17 19.3252 1614C19.3252 1614.83 18.6536 1615.5 17.8252 1615.5L13.7441 1615.5ZM1.5 1615.5C0.67157 1615.5 5.87108e-08 1614.83 1.31134e-07 1614C1.28941e-05 1613.17 0.671578 1612.5 1.5 1612.5L3.54004 1612.5C4.36846 1612.5 5.04003 1613.17 5.04004 1614C5.04004 1614.83 4.36847 1615.5 3.54004 1615.5L1.5 1615.5Z" fill="#E0E0E0"/>
<path d="M239.999 1675.99C239.999 1676.62 239.982 1677.25 239.947 1677.87C239.902 1678.7 239.193 1679.33 238.366 1679.28C237.539 1679.24 236.907 1678.53 236.952 1677.7C236.983 1677.14 236.999 1676.57 236.999 1675.99C236.999 1675.16 237.671 1674.49 238.499 1674.49C239.327 1674.49 239.999 1675.16 239.999 1675.99ZM236.687 1690.53C236.327 1691.28 235.43 1691.59 234.684 1691.23C233.938 1690.87 233.624 1689.98 233.984 1689.23C234.478 1688.21 234.916 1687.15 235.295 1686.07C235.569 1685.29 236.424 1684.88 237.206 1685.15C237.988 1685.42 238.4 1686.28 238.127 1687.06C237.711 1688.25 237.229 1689.41 236.687 1690.53ZM228.818 1700.98C228.201 1701.53 227.252 1701.48 226.7 1700.86C226.148 1700.24 226.201 1699.29 226.818 1698.74C227.669 1697.98 228.478 1697.17 229.239 1696.32C229.792 1695.7 230.74 1695.65 231.357 1696.2C231.975 1696.75 232.028 1697.7 231.476 1698.32C230.64 1699.25 229.753 1700.14 228.818 1700.98ZM217.56 1707.63C216.778 1707.9 215.922 1707.49 215.648 1706.71C215.375 1705.93 215.787 1705.07 216.569 1704.8C217.651 1704.42 218.706 1703.98 219.729 1703.49C220.475 1703.13 221.372 1703.44 221.731 1704.19C222.091 1704.93 221.778 1705.83 221.032 1706.19C219.908 1706.73 218.749 1707.21 217.56 1707.63ZM204.437 1709.5C203.608 1709.5 202.937 1708.83 202.937 1708C202.937 1707.17 203.608 1706.5 204.437 1706.5L206.488 1706.5C207.063 1706.5 207.634 1706.48 208.201 1706.45C209.028 1706.41 209.736 1707.04 209.782 1707.87C209.828 1708.7 209.194 1709.4 208.367 1709.45C207.745 1709.48 207.119 1709.5 206.488 1709.5L204.437 1709.5ZM190.074 1709.5L189.921 1709.49C189.164 1709.42 188.574 1708.78 188.574 1708C188.574 1707.17 189.246 1706.5 190.074 1706.5L194.178 1706.5C195.006 1706.5 195.678 1707.17 195.678 1708C195.678 1708.83 195.006 1709.5 194.178 1709.5L190.074 1709.5ZM175.711 1709.5L175.558 1709.49C174.801 1709.42 174.211 1708.78 174.211 1708C174.211 1707.17 174.883 1706.5 175.711 1706.5L179.814 1706.5C180.643 1706.5 181.314 1707.17 181.314 1708C181.314 1708.83 180.643 1709.5 179.814 1709.5L175.711 1709.5ZM161.349 1709.5L161.195 1709.49C160.439 1709.42 159.849 1708.78 159.849 1708C159.849 1707.17 160.52 1706.5 161.349 1706.5L165.452 1706.5C166.281 1706.5 166.952 1707.17 166.952 1708C166.952 1708.83 166.281 1709.5 165.452 1709.5L161.349 1709.5ZM146.986 1709.5L146.833 1709.49C146.077 1709.42 145.486 1708.78 145.486 1708C145.486 1707.17 146.158 1706.5 146.986 1706.5L151.09 1706.5C151.918 1706.5 152.59 1707.17 152.59 1708C152.59 1708.83 151.918 1709.5 151.09 1709.5L146.986 1709.5ZM132.623 1709.5L132.47 1709.49C131.714 1709.42 131.123 1708.78 131.123 1708C131.123 1707.17 131.795 1706.5 132.623 1706.5L136.728 1706.5C137.556 1706.5 138.228 1707.17 138.228 1708C138.227 1708.83 137.556 1709.5 136.728 1709.5L132.623 1709.5ZM118.261 1709.5L118.107 1709.49C117.351 1709.42 116.761 1708.78 116.761 1708C116.761 1707.17 117.432 1706.5 118.261 1706.5L122.364 1706.5C123.193 1706.5 123.864 1707.17 123.864 1708C123.864 1708.83 123.193 1709.5 122.364 1709.5L118.261 1709.5ZM103.898 1709.5L103.745 1709.49C102.989 1709.42 102.398 1708.78 102.398 1708C102.398 1707.17 103.07 1706.5 103.898 1706.5L108.002 1706.5C108.83 1706.5 109.502 1707.17 109.502 1708C109.502 1708.83 108.83 1709.5 108.002 1709.5L103.898 1709.5ZM89.5361 1709.5L89.3828 1709.49C88.6262 1709.42 88.0362 1708.78 88.0361 1708C88.0361 1707.17 88.7077 1706.5 89.5361 1706.5L93.6396 1706.5C94.4679 1706.5 95.1396 1707.17 95.1396 1708C95.1396 1708.83 94.4679 1709.5 93.6396 1709.5L89.5361 1709.5ZM75.1729 1709.5L75.0195 1709.49C74.2633 1709.42 73.6729 1708.78 73.6729 1708C73.6729 1707.17 74.3446 1706.5 75.1729 1706.5L79.2764 1706.5C80.1048 1706.5 80.7764 1707.17 80.7764 1708C80.7763 1708.83 80.1048 1709.5 79.2764 1709.5L75.1729 1709.5ZM60.8105 1709.5L60.6572 1709.49C59.9008 1709.42 59.3105 1708.78 59.3105 1708C59.3105 1707.17 59.9821 1706.5 60.8105 1706.5L64.9141 1706.5C65.7425 1706.5 66.4141 1707.17 66.4141 1708C66.4141 1708.83 65.7425 1709.5 64.9141 1709.5L60.8105 1709.5ZM48.5 1709.5C47.6716 1709.5 47 1708.83 47 1708C47 1707.17 47.6716 1706.5 48.5 1706.5L50.5518 1706.5C51.3801 1706.5 52.0518 1707.17 52.0518 1708C52.0518 1708.83 51.3801 1709.5 50.5518 1709.5L48.5 1709.5Z" fill="#E0E0E0"/>
<path d="M240 1.99316C240 2.82165 239.328 3.49316 238.5 3.49316C237.671 3.49316 237 2.82166 237 1.99316L237 -2.62268e-07L240 0L240 1.99316ZM240 15.9463C239.999 16.7746 239.328 17.4463 238.5 17.4463C237.671 17.4463 237 16.7746 237 15.9463L237 11.96C237 11.1315 237.671 10.46 238.5 10.46C239.328 10.46 240 11.1315 240 11.96L240 15.9463ZM240 29.8984C240 30.7269 239.328 31.3984 238.5 31.3984C237.671 31.3984 237 30.7269 237 29.8984L237 25.9121C237 25.0837 237.671 24.4121 238.5 24.4121C239.328 24.4121 240 25.0837 240 25.9121L240 29.8984ZM240 43.8506C240 44.679 239.328 45.3506 238.5 45.3506C237.671 45.3506 237 44.679 237 43.8506L237 39.8643C237 39.0359 237.671 38.3643 238.5 38.3643C239.328 38.3643 240 39.0359 240 39.8643L240 43.8506ZM240 57.8027C240 58.6311 239.328 59.3027 238.5 59.3027C237.671 59.3027 237 58.6311 237 57.8027L237 53.8164L237.007 53.6631C237.084 52.9068 237.723 52.3164 238.5 52.3164C239.328 52.3164 240 52.9882 240 53.8164L240 57.8027ZM240 71.7559C239.999 72.5841 239.328 73.2558 238.5 73.2559C237.671 73.2559 237 72.5841 237 71.7559L237 67.7686L237.007 67.6152C237.085 66.8591 237.723 66.2686 238.5 66.2686C239.328 66.2686 239.999 66.9404 240 67.7686L240 71.7559ZM240 85.708C240 86.5363 239.328 87.208 238.5 87.208C237.671 87.208 237 86.5363 237 85.708L237 81.7217C237 80.8933 237.671 80.2217 238.5 80.2217C239.328 80.2217 240 80.8933 240 81.7217L240 85.708ZM240 99.6602C240 100.489 239.328 101.16 238.5 101.16C237.671 101.16 237 100.489 237 99.6602L237 95.6738C237 94.8453 237.671 94.1738 238.5 94.1738C239.328 94.1738 240 94.8453 240 95.6738L240 99.6602ZM240 113.612C240 114.441 239.328 115.112 238.5 115.112C237.671 115.112 237 114.441 237 113.612L237 109.626L237.007 109.473C237.084 108.716 237.723 108.126 238.5 108.126C239.328 108.126 240 108.798 240 109.626L240 113.612ZM240 127.564C240 128.393 239.328 129.064 238.5 129.064C237.671 129.064 237 128.393 237 127.564L237 123.578L237.007 123.425C237.084 122.669 237.723 122.078 238.5 122.078C239.328 122.078 239.999 122.75 240 123.578L240 127.564ZM240 141.518C240 142.346 239.328 143.018 238.5 143.018C237.671 143.018 237 142.346 237 141.518L237 137.531C237 136.703 237.671 136.031 238.5 136.031C239.328 136.031 240 136.703 240 137.531L240 141.518ZM240 155.47C240 156.298 239.328 156.97 238.5 156.97C237.671 156.97 237 156.298 237 155.47L237 151.483C237 150.655 237.671 149.983 238.5 149.983C239.328 149.983 240 150.655 240 151.483L240 155.47ZM240 169.422C240 170.25 239.328 170.922 238.5 170.922C237.671 170.922 237 170.25 237 169.422L237 165.436L237.007 165.282C237.084 164.526 237.723 163.936 238.5 163.936C239.328 163.936 240 164.607 240 165.436L240 169.422ZM240 183.374C240 184.202 239.328 184.874 238.5 184.874C237.671 184.874 237 184.202 237 183.374L237 179.388L237.007 179.234C237.084 178.478 237.723 177.888 238.5 177.888C239.328 177.888 239.999 178.56 240 179.388L240 183.374ZM240 197.327C239.999 198.155 239.328 198.827 238.5 198.827C237.671 198.827 237 198.155 237 197.327L237 193.341C237 192.512 237.671 191.841 238.5 191.841C239.328 191.841 240 192.512 240 193.341L240 197.327ZM240 211.279C240 212.108 239.328 212.779 238.5 212.779C237.671 212.779 237 212.108 237 211.279L237 207.293C237 206.464 237.671 205.793 238.5 205.793C239.328 205.793 240 206.464 240 207.293L240 211.279ZM240 225.231C240 226.06 239.328 226.731 238.5 226.731C237.671 226.731 237 226.06 237 225.231L237 221.245L237.007 221.092C237.084 220.335 237.723 219.745 238.5 219.745C239.328 219.745 240 220.417 240 221.245L240 225.231ZM240 239.184C240 240.012 239.328 240.684 238.5 240.684C237.671 240.684 237 240.012 237 239.184L237 235.197L237.007 235.044C237.084 234.288 237.723 233.697 238.5 233.697C239.328 233.697 239.999 234.369 240 235.197L240 239.184ZM240 253.137C239.999 253.965 239.328 254.637 238.5 254.637C237.671 254.637 237 253.965 237 253.137L237 249.149L237.007 248.996C237.084 248.24 237.723 247.649 238.5 247.649C239.328 247.649 239.999 248.321 240 249.149L240 253.137ZM240 267.089C240 267.917 239.328 268.589 238.5 268.589C237.671 268.589 237 267.917 237 267.089L237 263.103C237 262.274 237.671 261.603 238.5 261.603C239.328 261.603 240 262.274 240 263.103L240 267.089ZM240 281.041C240 281.869 239.328 282.541 238.5 282.541C237.671 282.541 237 281.87 237 281.041L237 277.055C237 276.226 237.671 275.555 238.5 275.555C239.328 275.555 240 276.226 240 277.055L240 281.041ZM240 294.993C240 295.822 239.328 296.493 238.5 296.493C237.671 296.493 237 295.822 237 294.993L237 291.007L237.007 290.854C237.084 290.097 237.723 289.507 238.5 289.507C239.328 289.507 240 290.178 240 291.007L240 294.993ZM240 308.945C240 309.774 239.328 310.445 238.5 310.445C237.671 310.445 237 309.774 237 308.945L237 304.959L237.007 304.806C237.084 304.049 237.723 303.459 238.5 303.459C239.328 303.459 239.999 304.131 240 304.959L240 308.945ZM240 322.898C240 323.727 239.328 324.398 238.5 324.398C237.671 324.398 237 323.727 237 322.898L237 318.912C237 318.084 237.671 317.412 238.5 317.412C239.328 317.412 240 318.084 240 318.912L240 322.898ZM240 336.851C240 337.679 239.328 338.351 238.5 338.351C237.671 338.351 237 337.679 237 336.851L237 332.864C237 332.036 237.671 331.364 238.5 331.364C239.328 331.364 240 332.036 240 332.864L240 336.851ZM240 350.803C240 351.631 239.328 352.303 238.5 352.303C237.671 352.303 237 351.631 237 350.803L237 346.816L237.007 346.663C237.084 345.907 237.723 345.316 238.5 345.316C239.328 345.316 240 345.988 240 346.816L240 350.803ZM240 364.755C240 365.583 239.328 366.255 238.5 366.255C237.671 366.255 237 365.583 237 364.755L237 360.769L237.007 360.615C237.084 359.859 237.723 359.269 238.5 359.269C239.328 359.269 240 359.94 240 360.769L240 364.755ZM240 378.708C239.999 379.536 239.328 380.208 238.5 380.208C237.671 380.208 237 379.536 237 378.708L237 374.721L237.007 374.567C237.084 373.811 237.723 373.221 238.5 373.221C239.328 373.221 239.999 373.893 240 374.721L240 378.708ZM240 392.66C240 393.489 239.328 394.16 238.5 394.16C237.671 394.16 237 393.489 237 392.66L237 388.674C237 387.845 237.671 387.174 238.5 387.174C239.328 387.174 240 387.845 240 388.674L240 392.66ZM240 406.612C240 407.441 239.328 408.112 238.5 408.112C237.671 408.112 237 407.441 237 406.612L237 402.626C237 401.797 237.671 401.126 238.5 401.126C239.328 401.126 240 401.798 240 402.626L240 406.612ZM240 420.564C240 421.393 239.328 422.064 238.5 422.064C237.671 422.064 237 421.393 237 420.564L237 416.578L237.007 416.425C237.084 415.669 237.723 415.078 238.5 415.078C239.328 415.078 240 415.75 240 416.578L240 420.564ZM240 434.517C240 435.345 239.328 436.017 238.5 436.017C237.671 436.017 237 435.345 237 434.517L237 430.53L237.007 430.377C237.084 429.621 237.723 429.03 238.5 429.03C239.328 429.03 239.999 429.702 240 430.53L240 434.517ZM240 448.47C239.999 449.298 239.328 449.97 238.5 449.97C237.671 449.97 237 449.298 237 448.47L237 444.483C237 443.655 237.671 442.983 238.5 442.983C239.328 442.983 240 443.655 240 444.483L240 448.47ZM240 462.422C240 463.25 239.328 463.922 238.5 463.922C237.671 463.922 237 463.25 237 462.422L237 458.436C237 457.607 237.671 456.936 238.5 456.936C239.328 456.936 240 457.607 240 458.436L240 462.422ZM240 476.374C240 477.202 239.328 477.874 238.5 477.874C237.671 477.874 237 477.202 237 476.374L237 472.388C237 471.559 237.671 470.888 238.5 470.888C239.328 470.888 240 471.559 240 472.388L240 476.374ZM240 490.326C240 491.154 239.328 491.826 238.5 491.826C237.671 491.826 237 491.155 237 490.326L237 486.34L237.007 486.187C237.084 485.43 237.723 484.84 238.5 484.84C239.328 484.84 239.999 485.512 240 486.34L240 490.326ZM240 504.278C240 505.107 239.328 505.778 238.5 505.778C237.671 505.778 237 505.107 237 504.278L237 500.292L237.007 500.139C237.084 499.382 237.723 498.792 238.5 498.792C239.328 498.792 239.999 499.464 240 500.292L240 504.278ZM240 518.231C240 519.06 239.328 519.731 238.5 519.731C237.671 519.731 237 519.06 237 518.231L237 514.245C237 513.417 237.671 512.745 238.5 512.745C239.328 512.745 240 513.417 240 514.245L240 518.231ZM240 532.184C240 533.012 239.328 533.684 238.5 533.684C237.671 533.684 237 533.012 237 532.184L237 528.197C237 527.369 237.671 526.697 238.5 526.697C239.328 526.697 240 527.369 240 528.197L240 532.184ZM240 546.136C240 546.964 239.328 547.636 238.5 547.636C237.671 547.636 237 546.964 237 546.136L237 542.149L237.007 541.996C237.084 541.24 237.723 540.649 238.5 540.649C239.328 540.649 239.999 541.321 240 542.149L240 546.136ZM240 560.089C239.999 560.917 239.328 561.589 238.5 561.589C237.671 561.589 237 560.917 237 560.089L237 556.102L237.007 555.948C237.084 555.192 237.723 554.602 238.5 554.602C239.328 554.602 239.999 555.273 240 556.102L240 560.089ZM240 574.041C239.999 574.869 239.328 575.541 238.5 575.541C237.671 575.541 237 574.869 237 574.041L237 570.055C237 569.226 237.671 568.555 238.5 568.555C239.328 568.555 240 569.226 240 570.055L240 574.041ZM240 587.993C240 588.822 239.328 589.493 238.5 589.493C237.671 589.493 237 588.822 237 587.993L237 584.007C237 583.178 237.671 582.507 238.5 582.507C239.328 582.507 240 583.178 240 584.007L240 587.993ZM240 601.945C240 602.774 239.328 603.445 238.5 603.445C237.671 603.445 237 602.774 237 601.945L237 597.959L237.007 597.806C237.084 597.049 237.723 596.459 238.5 596.459C239.328 596.459 239.999 597.131 240 597.959L240 601.945ZM240 615.898C239.999 616.727 239.328 617.398 238.5 617.398C237.671 617.398 237 616.727 237 615.898L237 611.911L237.007 611.758C237.084 611.002 237.723 610.411 238.5 610.411C239.328 610.411 239.999 611.083 240 611.911L240 615.898ZM240 629.851C239.999 630.679 239.328 631.35 238.5 631.351C237.671 631.351 237 630.679 237 629.851L237 625.864C237 625.036 237.671 624.364 238.5 624.364C239.328 624.364 240 625.036 240 625.864L240 629.851ZM240 643.803C240 644.631 239.328 645.303 238.5 645.303C237.671 645.303 237 644.631 237 643.803L237 639.816C237 638.988 237.671 638.316 238.5 638.316C239.328 638.316 240 638.988 240 639.816L240 643.803ZM240 657.755C240 658.583 239.328 659.255 238.5 659.255C237.671 659.255 237 658.583 237 657.755L237 653.769L237.007 653.615C237.084 652.859 237.723 652.269 238.5 652.269C239.328 652.269 239.999 652.94 240 653.769L240 657.755ZM240 671.707C240 672.535 239.328 673.207 238.5 673.207C237.671 673.207 237 672.536 237 671.707L237 667.721L237.007 667.567C237.084 666.811 237.723 666.221 238.5 666.221C239.328 666.221 239.999 666.892 240 667.721L240 671.707ZM240 685.66C239.999 686.488 239.328 687.16 238.5 687.16C237.671 687.16 237 686.489 237 685.66L237 681.674C237 680.845 237.671 680.174 238.5 680.174C239.328 680.174 240 680.845 240 681.674L240 685.66ZM240 699.612C240 700.441 239.328 701.112 238.5 701.112C237.671 701.112 237 700.441 237 699.612L237 695.626C237 694.797 237.671 694.126 238.5 694.126C239.328 694.126 240 694.798 240 695.626L240 699.612ZM240 713.564C240 714.393 239.328 715.064 238.5 715.064C237.671 715.064 237 714.393 237 713.564L237 709.578L237.007 709.425C237.084 708.669 237.723 708.078 238.5 708.078C239.328 708.078 239.999 708.75 240 709.578L240 713.564ZM240 727.517C240 728.345 239.328 729.016 238.5 729.017C237.671 729.017 237 728.345 237 727.517L237 723.53L237.007 723.377C237.084 722.621 237.723 722.03 238.5 722.03C239.328 722.03 239.999 722.702 240 723.53L240 727.517ZM240 741.47C239.999 742.298 239.328 742.97 238.5 742.97C237.671 742.97 237 742.298 237 741.47L237 737.483C237 736.655 237.671 735.983 238.5 735.983C239.328 735.984 240 736.655 240 737.483L240 741.47ZM240 755.422C240 756.25 239.328 756.922 238.5 756.922C237.671 756.922 237 756.25 237 755.422L237 751.436C237 750.607 237.671 749.936 238.5 749.936C239.328 749.936 240 750.607 240 751.436L240 755.422ZM240 769.374C240 770.202 239.328 770.874 238.5 770.874C237.671 770.874 237 770.203 237 769.374L237 765.388L237.007 765.234C237.084 764.478 237.723 763.888 238.5 763.888C239.328 763.888 239.999 764.559 240 765.388L240 769.374ZM240 783.327C239.999 784.155 239.328 784.827 238.5 784.827C237.671 784.827 237 784.155 237 783.327L237 779.34L237.007 779.187C237.084 778.43 237.723 777.84 238.5 777.84C239.328 777.84 239.999 778.512 240 779.34L240 783.327ZM240 797.279C240 798.108 239.328 798.779 238.5 798.779C237.671 798.779 237 798.108 237 797.279L237 793.293C237 792.465 237.671 791.793 238.5 791.793C239.328 791.793 240 792.465 240 793.293L240 797.279ZM240 811.231C240 812.06 239.328 812.731 238.5 812.731C237.671 812.731 237 812.06 237 811.231L237 807.245C237 806.417 237.671 805.745 238.5 805.745C239.328 805.745 240 806.417 240 807.245L240 811.231ZM240 825.184C240 826.012 239.328 826.683 238.5 826.684C237.671 826.684 237 826.012 237 825.184L237 821.197L237.007 821.044C237.084 820.288 237.723 819.697 238.5 819.697C239.328 819.697 239.999 820.369 240 821.197L240 825.184ZM240 839.136C240 839.964 239.328 840.636 238.5 840.636C237.671 840.636 237 839.964 237 839.136L237 835.149L237.007 834.996C237.084 834.24 237.723 833.649 238.5 833.649C239.328 833.65 239.999 834.321 240 835.149L240 839.136ZM240 853.089C239.999 853.917 239.328 854.589 238.5 854.589C237.671 854.589 237 853.917 237 853.089L237 849.103C237 848.274 237.671 847.603 238.5 847.603C239.328 847.603 240 848.274 240 849.103L240 853.089ZM240 867.041C240 867.869 239.328 868.541 238.5 868.541C237.671 868.541 237 867.869 237 867.041L237 863.055C237 862.226 237.671 861.555 238.5 861.555C239.328 861.555 240 862.226 240 863.055L240 867.041ZM240 880.993C240 881.822 239.328 882.493 238.5 882.493C237.671 882.493 237 881.822 237 880.993L237 877.007L237.007 876.854C237.084 876.097 237.723 875.507 238.5 875.507C239.328 875.507 239.999 876.179 240 877.007L240 880.993ZM240 894.945C240 895.774 239.328 896.445 238.5 896.445C237.671 896.445 237 895.774 237 894.945L237 890.959L237.007 890.806C237.084 890.05 237.723 889.459 238.5 889.459C239.328 889.459 239.999 890.131 240 890.959L240 894.945ZM240 908.898C239.999 909.727 239.328 910.398 238.5 910.398C237.671 910.398 237 909.727 237 908.898L237 904.912C237 904.084 237.671 903.412 238.5 903.412C239.328 903.412 240 904.084 240 904.912L240 908.898ZM240 922.851C240 923.679 239.328 924.35 238.5 924.351C237.671 924.351 237 923.679 237 922.851L237 918.864C237 918.036 237.671 917.364 238.5 917.364C239.328 917.364 240 918.036 240 918.864L240 922.851ZM240 936.803C240 937.631 239.328 938.303 238.5 938.303C237.671 938.303 237 937.631 237 936.803L237 932.816L237.007 932.663C237.084 931.907 237.723 931.316 238.5 931.316C239.328 931.317 239.999 931.988 240 932.816L240 936.803ZM240 950.756C239.999 951.584 239.328 952.256 238.5 952.256C237.671 952.256 237 951.584 237 950.756L237 946.769L237.007 946.615C237.084 945.859 237.723 945.269 238.5 945.269C239.328 945.269 239.999 945.94 240 946.769L240 950.756ZM240 964.708C239.999 965.536 239.328 966.208 238.5 966.208C237.671 966.208 237 965.536 237 964.708L237 960.722C237 959.893 237.671 959.222 238.5 959.222C239.328 959.222 240 959.893 240 960.722L240 964.708ZM240 978.66C240 979.488 239.328 980.16 238.5 980.16C237.671 980.16 237 979.489 237 978.66L237 974.674C237 973.845 237.671 973.174 238.5 973.174C239.328 973.174 240 973.845 240 974.674L240 978.66ZM240 992.612C240 993.441 239.328 994.112 238.5 994.112C237.671 994.112 237 993.441 237 992.612L237 988.626L237.007 988.473C237.084 987.716 237.723 987.126 238.5 987.126C239.328 987.126 239.999 987.798 240 988.626L240 992.612ZM240 1006.56C240 1007.39 239.328 1008.06 238.5 1008.06C237.671 1008.06 237 1007.39 237 1006.56L237 1002.58L237.007 1002.42C237.084 1001.67 237.723 1001.08 238.5 1001.08C239.328 1001.08 239.999 1001.75 240 1002.58L240 1006.56ZM240 1020.52C239.999 1021.35 239.328 1022.02 238.5 1022.02C237.671 1022.02 237 1021.35 237 1020.52L237 1016.53C237 1015.7 237.671 1015.03 238.5 1015.03C239.328 1015.03 240 1015.7 240 1016.53L240 1020.52ZM240 1034.47C240 1035.3 239.328 1035.97 238.5 1035.97C237.671 1035.97 237 1035.3 237 1034.47L237 1030.48C237 1029.65 237.671 1028.98 238.5 1028.98C239.328 1028.98 240 1029.66 240 1030.48L240 1034.47ZM240 1048.42C240 1049.25 239.328 1049.92 238.5 1049.92C237.671 1049.92 237 1049.25 237 1048.42L237 1044.44L237.007 1044.28C237.084 1043.53 237.723 1042.94 238.5 1042.94C239.328 1042.94 239.999 1043.61 240 1044.44L240 1048.42ZM240 1062.38C239.999 1063.2 239.328 1063.87 238.5 1063.87C237.671 1063.87 237 1063.2 237 1062.37L237 1058.39L237.007 1058.23C237.084 1057.48 237.723 1056.89 238.5 1056.89C239.328 1056.89 239.999 1057.56 240 1058.39L240 1062.38ZM240 1076.33C239.999 1077.16 239.328 1077.83 238.5 1077.83C237.671 1077.83 237 1077.16 237 1076.33L237 1072.34C237 1071.51 237.671 1070.84 238.5 1070.84C239.328 1070.84 240 1071.51 240 1072.34L240 1076.33ZM240 1090.28C240 1091.11 239.328 1091.78 238.5 1091.78C237.671 1091.78 237 1091.11 237 1090.28L237 1086.29C237 1085.46 237.671 1084.79 238.5 1084.79C239.328 1084.79 240 1085.46 240 1086.29L240 1090.28ZM240 1104.23C240 1105.06 239.328 1105.73 238.5 1105.73C237.671 1105.73 237 1105.06 237 1104.23L237 1100.25L237.007 1100.09C237.084 1099.34 237.723 1098.75 238.5 1098.75C239.328 1098.75 239.999 1099.42 240 1100.25L240 1104.23ZM240 1118.18C239.999 1119.01 239.328 1119.68 238.5 1119.68C237.671 1119.68 237 1119.01 237 1118.18L237 1114.2L237.007 1114.04C237.084 1113.29 237.723 1112.7 238.5 1112.7C239.328 1112.7 239.999 1113.37 240 1114.2L240 1118.18ZM240 1132.14C240 1132.96 239.328 1133.64 238.5 1133.64C237.671 1133.64 237 1132.97 237 1132.14L237 1128.15C237 1127.32 237.671 1126.65 238.5 1126.65C239.328 1126.65 240 1127.32 240 1128.15L240 1132.14ZM240 1146.09C240 1146.92 239.328 1147.59 238.5 1147.59C237.671 1147.59 237 1146.92 237 1146.09L237 1142.1C237 1141.27 237.671 1140.6 238.5 1140.6C239.328 1140.6 240 1141.27 240 1142.1L240 1146.09ZM240 1160.04C240 1160.87 239.328 1161.54 238.5 1161.54C237.671 1161.54 237 1160.87 237 1160.04L237 1156.05L237.007 1155.9C237.084 1155.15 237.723 1154.55 238.5 1154.55C239.328 1154.55 239.999 1155.23 240 1156.05L240 1160.04ZM240 1173.99C239.999 1174.82 239.328 1175.49 238.5 1175.49C237.671 1175.49 237 1174.82 237 1173.99L237 1170.01L237.007 1169.85C237.084 1169.1 237.723 1168.51 238.5 1168.51C239.328 1168.51 239.999 1169.18 240 1170.01L240 1173.99ZM240 1187.95C239.999 1188.77 239.328 1189.45 238.5 1189.45C237.671 1189.45 237 1188.77 237 1187.95L237 1183.96C237 1183.13 237.671 1182.46 238.5 1182.46C239.328 1182.46 240 1183.13 240 1183.96L240 1187.95ZM240 1201.9C240 1202.73 239.328 1203.4 238.5 1203.4C237.671 1203.4 237 1202.73 237 1201.9L237 1197.91C237 1197.08 237.671 1196.41 238.5 1196.41C239.328 1196.41 240 1197.08 240 1197.91L240 1201.9ZM240 1215.85C240 1216.68 239.328 1217.35 238.5 1217.35C237.671 1217.35 237 1216.68 237 1215.85L237 1211.86L237.007 1211.71C237.084 1210.95 237.723 1210.36 238.5 1210.36C239.328 1210.36 239.999 1211.04 240 1211.86L240 1215.85ZM240 1229.8C239.999 1230.63 239.328 1231.3 238.5 1231.3C237.671 1231.3 237 1230.63 237 1229.8L237 1225.82L237.007 1225.66C237.084 1224.91 237.723 1224.32 238.5 1224.32C239.328 1224.32 239.999 1224.99 240 1225.82L240 1229.8ZM240 1243.76C239.999 1244.58 239.328 1245.26 238.5 1245.26C237.671 1245.26 237 1244.58 237 1243.76L237 1239.77C237 1238.94 237.671 1238.27 238.5 1238.27C239.328 1238.27 240 1238.94 240 1239.77L240 1243.76ZM240 1257.71C240 1258.54 239.328 1259.21 238.5 1259.21C237.671 1259.21 237 1258.54 237 1257.71L237 1253.72C237 1252.89 237.671 1252.22 238.5 1252.22C239.328 1252.22 240 1252.89 240 1253.72L240 1257.71ZM240 1271.66C240 1272.49 239.328 1273.16 238.5 1273.16C237.671 1273.16 237 1272.49 237 1271.66L237 1267.67L237.007 1267.52C237.084 1266.76 237.723 1266.17 238.5 1266.17C239.328 1266.17 239.999 1266.85 240 1267.67L240 1271.66ZM240 1285.61C239.999 1286.44 239.328 1287.11 238.5 1287.11C237.671 1287.11 237 1286.44 237 1285.61L237 1281.63L237.007 1281.47C237.084 1280.72 237.723 1280.13 238.5 1280.13C239.328 1280.13 239.999 1280.8 240 1281.63L240 1285.61ZM240 1299.57C239.999 1300.39 239.328 1301.07 238.5 1301.07C237.671 1301.07 237 1300.39 237 1299.57L237 1295.58C237 1294.75 237.671 1294.08 238.5 1294.08C239.328 1294.08 240 1294.75 240 1295.58L240 1299.57ZM240 1313.52C240 1314.35 239.328 1315.02 238.5 1315.02C237.671 1315.02 237 1314.35 237 1313.52L237 1309.53C237 1308.7 237.671 1308.03 238.5 1308.03C239.328 1308.03 240 1308.7 240 1309.53L240 1313.52ZM240 1327.47C240 1328.3 239.328 1328.97 238.5 1328.97C237.671 1328.97 237 1328.3 237 1327.47L237 1323.48L237.007 1323.33C237.084 1322.57 237.723 1321.98 238.5 1321.98C239.328 1321.98 239.999 1322.66 240 1323.48L240 1327.47ZM240 1341.42C239.999 1342.25 239.328 1342.92 238.5 1342.92C237.671 1342.92 237 1342.25 237 1341.42L237 1337.44L237.007 1337.28C237.084 1336.53 237.723 1335.94 238.5 1335.94C239.328 1335.94 239.999 1336.61 240 1337.44L240 1341.42ZM240 1355.38C239.999 1356.2 239.328 1356.87 238.5 1356.87C237.671 1356.87 237 1356.2 237 1355.37L237 1351.39C237 1350.56 237.671 1349.89 238.5 1349.89C239.328 1349.89 240 1350.56 240 1351.39L240 1355.38ZM240 1369.33C240 1370.16 239.328 1370.83 238.5 1370.83C237.671 1370.83 237 1370.16 237 1369.33L237 1365.34C237 1364.51 237.671 1363.84 238.5 1363.84C239.328 1363.84 240 1364.51 240 1365.34L240 1369.33ZM240 1383.28C240 1384.11 239.328 1384.78 238.5 1384.78C237.671 1384.78 237 1384.11 237 1383.28L237 1379.29L237.007 1379.14C237.084 1378.38 237.723 1377.79 238.5 1377.79C239.328 1377.79 239.999 1378.46 240 1379.29L240 1383.28ZM240 1397.23C239.999 1398.06 239.328 1398.73 238.5 1398.73C237.671 1398.73 237 1398.06 237 1397.23L237 1393.25L237.007 1393.09C237.084 1392.34 237.723 1391.75 238.5 1391.75C239.328 1391.75 239.999 1392.42 240 1393.25L240 1397.23ZM240 1411.18C239.999 1412.01 239.328 1412.68 238.5 1412.68C237.671 1412.68 237 1412.01 237 1411.18L237 1407.2C237 1406.37 237.671 1405.7 238.5 1405.7C239.328 1405.7 240 1406.37 240 1407.2L240 1411.18ZM240 1425.14C240 1425.97 239.328 1426.64 238.5 1426.64C237.671 1426.64 237 1425.97 237 1425.14L237 1421.15C237 1420.32 237.671 1419.65 238.5 1419.65C239.328 1419.65 240 1420.32 240 1421.15L240 1425.14ZM240 1439.09C240 1439.92 239.328 1440.59 238.5 1440.59C237.671 1440.59 237 1439.92 237 1439.09L237 1435.1L237.007 1434.95C237.084 1434.19 237.723 1433.6 238.5 1433.6C239.328 1433.6 239.999 1434.27 240 1435.1L240 1439.09ZM240 1453.04C239.999 1453.87 239.328 1454.54 238.5 1454.54C237.671 1454.54 237 1453.87 237 1453.04L237 1449.05L237.007 1448.9C237.084 1448.15 237.723 1447.55 238.5 1447.55C239.328 1447.55 239.999 1448.23 240 1449.05L240 1453.04ZM240 1466.99C239.999 1467.82 239.328 1468.49 238.5 1468.49C237.671 1468.49 237 1467.82 237 1466.99L237 1463.01C237 1462.18 237.671 1461.51 238.5 1461.51C239.328 1461.51 240 1462.18 240 1463.01L240 1466.99ZM240 1480.95C240 1481.77 239.328 1482.45 238.5 1482.45C237.671 1482.45 237 1481.77 237 1480.95L237 1476.96C237 1476.13 237.671 1475.46 238.5 1475.46C239.328 1475.46 240 1476.13 240 1476.96L240 1480.95ZM240 1494.9C240 1495.73 239.328 1496.4 238.5 1496.4C237.671 1496.4 237 1495.73 237 1494.9L237 1490.91L237.007 1490.76C237.084 1490 237.723 1489.41 238.5 1489.41C239.328 1489.41 239.999 1490.08 240 1490.91L240 1494.9ZM240 1508.85C239.999 1509.68 239.328 1510.35 238.5 1510.35C237.671 1510.35 237 1509.68 237 1508.85L237 1504.86L237.007 1504.71C237.084 1503.95 237.723 1503.36 238.5 1503.36C239.328 1503.36 239.999 1504.04 240 1504.86L240 1508.85ZM240 1522.8C239.999 1523.63 239.328 1524.3 238.5 1524.3C237.671 1524.3 237 1523.63 237 1522.8L237 1518.82C237 1517.99 237.671 1517.32 238.5 1517.32C239.328 1517.32 240 1517.99 240 1518.82L240 1522.8ZM240 1536.76C240 1537.58 239.328 1538.26 238.5 1538.26C237.671 1538.26 237 1537.58 237 1536.76L237 1532.77C237 1531.94 237.671 1531.27 238.5 1531.27C239.328 1531.27 240 1531.94 240 1532.77L240 1536.76ZM240 1550.71C240 1551.54 239.328 1552.21 238.5 1552.21C237.671 1552.21 237 1551.54 237 1550.71L237 1546.72L237.007 1546.57C237.084 1545.81 237.723 1545.22 238.5 1545.22C239.328 1545.22 239.999 1545.89 240 1546.72L240 1550.71ZM240 1564.66C239.999 1565.49 239.328 1566.16 238.5 1566.16C237.671 1566.16 237 1565.49 237 1564.66L237 1560.67L237.007 1560.52C237.084 1559.76 237.723 1559.17 238.5 1559.17C239.328 1559.17 239.999 1559.85 240 1560.67L240 1564.66ZM240 1578.61C239.999 1579.44 239.328 1580.11 238.5 1580.11C237.671 1580.11 237 1579.44 237 1578.61L237 1574.63C237 1573.8 237.671 1573.13 238.5 1573.13C239.328 1573.13 240 1573.8 240 1574.63L240 1578.61ZM240 1592.57C240 1593.39 239.328 1594.07 238.5 1594.07C237.671 1594.07 237 1593.39 237 1592.57L237 1588.58C237 1587.75 237.671 1587.08 238.5 1587.08C239.328 1587.08 240 1587.75 240 1588.58L240 1592.57ZM240 1606.52C240 1607.35 239.328 1608.02 238.5 1608.02C237.671 1608.02 237 1607.35 237 1606.52L237 1602.53L237.006 1602.38C237.083 1601.62 237.723 1601.03 238.5 1601.03C239.328 1601.03 239.999 1601.7 240 1602.53L240 1606.52ZM240 1620.47C239.999 1621.3 239.328 1621.97 238.5 1621.97C237.671 1621.97 237 1621.3 237 1620.47L237 1616.48L237.006 1616.33C237.083 1615.57 237.723 1614.98 238.5 1614.98C239.328 1614.98 239.999 1615.66 240 1616.48L240 1620.47ZM240 1634.42C239.999 1635.25 239.328 1635.92 238.5 1635.92C237.671 1635.92 237 1635.25 237 1634.42L237 1630.44C237 1629.61 237.671 1628.94 238.5 1628.94C239.328 1628.94 240 1629.61 240 1630.44L240 1634.42ZM240 1648.38C240 1649.2 239.328 1649.87 238.5 1649.87C237.671 1649.87 237 1649.2 237 1648.37L237 1644.39C237 1643.56 237.671 1642.89 238.5 1642.89C239.328 1642.89 240 1643.56 240 1644.39L240 1648.38ZM240 1662.33C240 1663.16 239.328 1663.83 238.5 1663.83C237.671 1663.83 237 1663.16 237 1662.33L237 1658.34L237.006 1658.19C237.083 1657.43 237.723 1656.84 238.5 1656.84C239.328 1656.84 239.999 1657.51 240 1658.34L240 1662.33ZM240 1676.28C239.999 1677.11 239.328 1677.78 238.5 1677.78C237.671 1677.78 237 1677.11 237 1676.28L237 1672.29L237.006 1672.14C237.083 1671.38 237.723 1670.79 238.5 1670.79C239.328 1670.79 239.999 1671.46 240 1672.29L240 1676.28ZM240 1690.23C239.999 1691.06 239.328 1691.73 238.5 1691.73C237.671 1691.73 237 1691.06 237 1690.23L237 1686.25C237 1685.42 237.671 1684.75 238.5 1684.75C239.328 1684.75 240 1685.42 240 1686.25L240 1690.23ZM240 1704.18C240 1705.01 239.328 1705.68 238.5 1705.68C237.671 1705.68 237 1705.01 237 1704.18L237 1700.2C237 1699.37 237.671 1698.7 238.5 1698.7C239.328 1698.7 240 1699.37 240 1700.2L240 1704.18ZM240 1718.14C240 1718.96 239.328 1719.64 238.5 1719.64C237.671 1719.64 237 1718.97 237 1718.14L237 1714.15L237.006 1714C237.083 1713.24 237.723 1712.65 238.5 1712.65C239.328 1712.65 239.999 1713.32 240 1714.15L240 1718.14ZM240 1732.09C239.999 1732.92 239.328 1733.59 238.5 1733.59C237.671 1733.59 237 1732.92 237 1732.09L237 1728.1C237 1727.28 237.671 1726.6 238.5 1726.6C239.328 1726.6 240 1727.28 240 1728.1L240 1732.09ZM240 1746.04C239.999 1746.87 239.328 1747.54 238.5 1747.54C237.671 1747.54 237 1746.87 237 1746.04L237 1742.06C237 1741.23 237.671 1740.56 238.5 1740.56C239.328 1740.56 240 1741.23 240 1742.06L240 1746.04ZM240 1758C240 1758.68 239.984 1759.36 239.954 1760.04C239.917 1760.87 239.217 1761.51 238.389 1761.47L238.237 1761.46C237.484 1761.35 236.922 1760.69 236.957 1759.91C236.985 1759.28 237 1758.64 237 1758L237 1756.01C237 1755.18 237.671 1754.51 238.5 1754.51C239.328 1754.51 240 1755.18 240 1756.01L240 1758ZM237.109 1773.99C236.818 1774.77 235.953 1775.16 235.177 1774.87C234.402 1774.58 234.009 1773.71 234.3 1772.94C234.745 1771.75 235.138 1770.54 235.477 1769.31C235.697 1768.51 236.523 1768.04 237.322 1768.26C238.12 1768.48 238.59 1769.31 238.37 1770.11C238.006 1771.43 237.585 1772.72 237.109 1773.99ZM230.074 1786.37C229.557 1787.02 228.613 1787.12 227.965 1786.61C227.318 1786.09 227.212 1785.15 227.729 1784.5C228.522 1783.51 229.271 1782.48 229.973 1781.41C230.43 1780.72 231.361 1780.53 232.052 1780.99C232.743 1781.45 232.933 1782.38 232.476 1783.07C231.724 1784.21 230.922 1785.31 230.074 1786.37ZM219.568 1795.98C218.877 1796.43 217.947 1796.24 217.49 1795.55C217.033 1794.86 217.223 1793.93 217.914 1793.47C218.976 1792.77 220.005 1792.02 220.998 1791.23C221.645 1790.71 222.589 1790.82 223.106 1791.47C223.623 1792.11 223.517 1793.06 222.87 1793.57C221.807 1794.42 220.705 1795.22 219.568 1795.98ZM206.608 1801.87C205.809 1802.09 204.983 1801.62 204.763 1800.82C204.543 1800.02 205.012 1799.2 205.811 1798.98C207.043 1798.64 208.253 1798.25 209.437 1797.8C210.212 1797.51 211.077 1797.9 211.369 1798.68C211.66 1799.45 211.267 1800.32 210.492 1800.61C209.223 1801.09 207.927 1801.51 206.608 1801.87ZM192.433 1803.5L192.28 1803.49C191.523 1803.42 190.933 1802.78 190.933 1802C190.933 1801.17 191.605 1800.5 192.433 1800.5L194.5 1800.5C195.139 1800.5 195.776 1800.49 196.409 1800.46C197.236 1800.42 197.937 1801.06 197.973 1801.89C198.009 1802.72 197.369 1803.42 196.542 1803.46C195.865 1803.48 195.184 1803.5 194.5 1803.5L192.433 1803.5ZM177.971 1803.5L177.818 1803.49C177.062 1803.42 176.471 1802.78 176.471 1802C176.471 1801.17 177.143 1800.5 177.971 1800.5L182.103 1800.5C182.931 1800.5 183.603 1801.17 183.603 1802C183.603 1802.83 182.931 1803.5 182.103 1803.5L177.971 1803.5ZM163.51 1803.5L163.357 1803.49C162.6 1803.42 162.01 1802.78 162.01 1802C162.01 1801.17 162.682 1800.5 163.51 1800.5L167.642 1800.5C168.47 1800.5 169.142 1801.17 169.142 1802C169.142 1802.83 168.47 1803.5 167.642 1803.5L163.51 1803.5ZM149.048 1803.5L148.895 1803.49C148.139 1803.42 147.548 1802.78 147.548 1802C147.548 1801.17 148.22 1800.5 149.048 1800.5L153.18 1800.5C154.009 1800.5 154.68 1801.17 154.68 1802C154.68 1802.83 154.009 1803.5 153.18 1803.5L149.048 1803.5ZM134.587 1803.5L134.434 1803.49C133.678 1803.42 133.087 1802.78 133.087 1802C133.087 1801.17 133.759 1800.5 134.587 1800.5L138.719 1800.5C139.548 1800.5 140.219 1801.17 140.219 1802C140.219 1802.83 139.548 1803.5 138.719 1803.5L134.587 1803.5ZM120.125 1803.5L119.972 1803.49C119.216 1803.42 118.625 1802.78 118.625 1802C118.625 1801.17 119.297 1800.5 120.125 1800.5L124.257 1800.5C125.086 1800.5 125.757 1801.17 125.757 1802C125.757 1802.83 125.086 1803.5 124.257 1803.5L120.125 1803.5ZM105.665 1803.5L105.511 1803.49C104.755 1803.42 104.165 1802.78 104.165 1802C104.165 1801.17 104.836 1800.5 105.665 1800.5L109.796 1800.5C110.625 1800.5 111.296 1801.17 111.296 1802C111.296 1802.83 110.625 1803.5 109.796 1803.5L105.665 1803.5ZM91.2026 1803.5L91.0493 1803.49C90.293 1803.42 89.7026 1802.78 89.7026 1802C89.7026 1801.17 90.3743 1800.5 91.2026 1800.5L95.3345 1800.5C96.1629 1800.5 96.8345 1801.17 96.8345 1802C96.8345 1802.83 96.1629 1803.5 95.3345 1803.5L91.2026 1803.5ZM76.7417 1803.5L76.5884 1803.49C75.8318 1803.42 75.2417 1802.78 75.2417 1802C75.2417 1801.17 75.9133 1800.5 76.7417 1800.5L80.8735 1800.5C81.7018 1800.5 82.3735 1801.17 82.3735 1802C82.3735 1802.83 81.7018 1803.5 80.8735 1803.5L76.7417 1803.5ZM62.2798 1803.5L62.1265 1803.49C61.3701 1803.42 60.7798 1802.78 60.7798 1802C60.7798 1801.17 61.4514 1800.5 62.2798 1800.5L66.4116 1800.5C67.2401 1800.5 67.9116 1801.17 67.9116 1802C67.9116 1802.83 67.24 1803.5 66.4116 1803.5L62.2798 1803.5ZM47.8179 1803.5C46.9896 1803.5 46.3179 1802.83 46.3179 1802C46.3179 1801.17 46.9896 1800.5 47.8179 1800.5L51.9497 1800.5C52.7781 1800.5 53.4497 1801.17 53.4497 1802C53.4497 1802.83 52.7781 1803.5 51.9497 1803.5L47.8179 1803.5ZM33.3569 1803.5L33.2036 1803.49C32.4472 1803.42 31.8569 1802.78 31.8569 1802C31.8569 1801.17 32.5285 1800.5 33.3569 1800.5L37.4888 1800.5C38.3172 1800.5 38.9888 1801.17 38.9888 1802C38.9888 1802.83 38.3171 1803.5 37.4888 1803.5L33.3569 1803.5ZM18.895 1803.5L18.7417 1803.49C17.9854 1803.42 17.395 1802.78 17.395 1802C17.395 1801.17 18.0667 1800.5 18.895 1800.5L23.0269 1800.5C23.8553 1800.5 24.5269 1801.17 24.5269 1802C24.5268 1802.83 23.8553 1803.5 23.0269 1803.5L18.895 1803.5ZM6.49951 1803.5C5.6712 1803.5 4.99952 1802.83 4.99951 1802C4.99951 1801.17 5.67119 1800.5 6.49951 1800.5L8.56592 1800.5C9.39424 1800.5 10.0659 1801.17 10.0659 1802C10.0659 1802.83 9.39424 1803.5 8.56592 1803.5L6.49951 1803.5Z" fill="#E0E0E0"/>
</svg>
