<svg width="175" height="60" viewBox="0 0 175 60" fill="none" xmlns="http://www.w3.org/2000/svg">
<g clip-path="url(#clip0_1247_210)">
<rect x="16.5" y="14.5" width="158" height="45" rx="7.5" fill="white"/>
<rect x="16.5" y="14.5" width="158" height="45" rx="7.5" stroke="#101010"/>
<path d="M44 26C35.1903 26 28 33.1903 28 42C28 50.8097 35.1903 58 44 58C52.8097 58 60 50.8097 60 42C60 33.1903 52.8097 26 44 26ZM32.4696 42C32.4696 38.6964 33.8947 35.6518 36.1619 33.579C37.0688 32.7369 38.6235 32.996 39.2713 34.0972L43.2874 41.0284C43.6761 41.6761 43.6761 42.4534 43.2874 43.1012L39.2713 50.0324C38.6235 51.1984 37.0688 51.3927 36.0972 50.4858C33.8947 48.2834 32.4696 45.3037 32.4696 42ZM48.7287 49.9028L44.7126 42.9717C44.3239 42.3239 44.3239 41.5466 44.7126 40.8988L48.7287 33.9676C49.3765 32.8664 50.8664 32.6073 51.8381 33.4494C54.1053 35.5223 55.5304 38.5668 55.5304 41.8704C55.5304 45.1741 54.1053 48.2186 51.8381 50.2915C50.8664 51.3279 49.3765 51.0688 48.7287 49.9028Z" fill="white"/>
<rect x="8.5" y="7.5" width="158" height="45" rx="7.5" fill="white"/>
<rect x="8.5" y="7.5" width="158" height="45" rx="7.5" stroke="#101010"/>
<path d="M36 19C27.1903 19 20 26.1903 20 35C20 43.8097 27.1903 51 36 51C44.8097 51 52 43.8097 52 35C52 26.1903 44.8097 19 36 19ZM24.4696 35C24.4696 31.6964 25.8947 28.6518 28.1619 26.579C29.0688 25.7369 30.6235 25.996 31.2713 27.0972L35.2874 34.0284C35.6761 34.6761 35.6761 35.4534 35.2874 36.1012L31.2713 43.0324C30.6235 44.1984 29.0688 44.3927 28.0972 43.4858C25.8947 41.2834 24.4696 38.3037 24.4696 35ZM40.7287 42.9028L36.7126 35.9717C36.3239 35.3239 36.3239 34.5466 36.7126 33.8988L40.7287 26.9676C41.3765 25.8664 42.8664 25.6073 43.8381 26.4494C46.1053 28.5223 47.5304 31.5668 47.5304 34.8704C47.5304 38.1741 46.1053 41.2186 43.8381 43.2915C42.8664 44.3279 41.3765 44.0688 40.7287 42.9028Z" fill="white"/>
<rect x="0.5" y="0.5" width="158" height="45" rx="7.5" fill="white"/>
<rect x="0.5" y="0.5" width="158" height="45" rx="7.5" stroke="black"/>
<path d="M143.172 31.1716L131 18.9997L133 17L145.172 29.1705L145.172 18.4439L148 18.4439L148 34L132.444 34L132.444 31.1716L143.172 31.1716Z" fill="#101010"/>
</g>
<path d="M23.4148 25.856C23.4148 28.576 21.6868 30.24 18.8868 30.24C16.0868 30.24 14.3588 28.576 14.3588 25.856V19.12H16.5188V25.856C16.5188 27.504 17.3988 28.496 18.8868 28.496C20.3908 28.496 21.2708 27.504 21.2708 25.856V19.12H23.4148V25.856ZM27.3904 33.52H25.3424V21.424H27.3904V22.4C27.9344 21.616 28.7024 21.184 29.6464 21.184C31.8864 21.184 33.2624 22.896 33.2624 25.696C33.2624 28.608 31.8544 30.24 29.6464 30.24C28.7024 30.24 27.9184 29.84 27.3904 29.072V33.52ZM29.2784 22.88C28.0464 22.88 27.3904 23.872 27.3904 25.696C27.3904 27.52 28.0784 28.544 29.2784 28.544C30.4944 28.544 31.1504 27.536 31.1504 25.696C31.1504 23.888 30.4784 22.88 29.2784 22.88ZM37.8687 30.032C35.6927 30.032 34.3487 28.352 34.3487 25.616C34.3487 22.768 35.7247 21.184 37.8687 21.184C38.8927 21.184 39.6927 21.568 40.2207 22.288V21.424H42.2687V30.272C42.2687 32.592 40.6687 33.776 38.5407 33.776C36.4287 33.776 34.8927 32.8 34.5887 30.768H36.6527C36.7807 31.68 37.5167 32.16 38.5087 32.16C39.5327 32.16 40.2207 31.664 40.2207 30.304V28.864C39.6607 29.632 38.8607 30.032 37.8687 30.032ZM38.3327 28.336C39.5647 28.336 40.2207 27.376 40.2207 25.616C40.2207 23.872 39.5327 22.88 38.3327 22.88C37.1167 22.88 36.4607 23.84 36.4607 25.616C36.4607 27.36 37.1167 28.336 38.3327 28.336ZM44.1549 30V21.424H46.2029V22.672C46.7629 21.648 47.6269 21.184 48.5549 21.184C48.9069 21.184 49.2269 21.28 49.3869 21.424V23.2C49.1149 23.12 48.8109 23.088 48.4429 23.088C46.8909 23.088 46.2029 24.016 46.2029 25.44V30H44.1549ZM52.3577 24.24H50.2937C50.5657 22.336 51.9577 21.184 54.1177 21.184C56.5017 21.184 57.7177 22.592 57.7177 24.576V27.904C57.7177 28.96 57.8137 29.552 57.9737 30H55.8457C55.7337 29.712 55.6857 29.296 55.6697 28.832C54.9657 29.824 53.9097 30.24 52.8857 30.24C51.2057 30.24 50.0057 29.408 50.0057 27.76C50.0057 26.592 50.6617 25.712 51.9737 25.28C53.1097 24.896 54.2137 24.8 55.6537 24.784V24.576C55.6537 23.472 55.1257 22.88 53.9897 22.88C53.0137 22.88 52.4857 23.424 52.3577 24.24ZM52.0697 27.648C52.0697 28.304 52.5817 28.72 53.4137 28.72C54.6777 28.72 55.6537 27.696 55.6537 26.416V26.048C52.7417 26.096 52.0697 26.784 52.0697 27.648ZM62.8866 30.24C60.6466 30.24 59.2706 28.528 59.2706 25.728C59.2706 22.816 60.6786 21.184 62.8866 21.184C63.8306 21.184 64.6146 21.584 65.1426 22.352V18.48H67.1906V30H65.1426V29.024C64.5986 29.808 63.8306 30.24 62.8866 30.24ZM63.2546 28.544C64.4866 28.544 65.1426 27.552 65.1426 25.728C65.1426 23.904 64.4546 22.88 63.2546 22.88C62.0386 22.88 61.3826 23.888 61.3826 25.728C61.3826 27.536 62.0546 28.544 63.2546 28.544ZM76.8852 27.2C76.4212 29.184 74.8852 30.24 72.8372 30.24C70.2452 30.24 68.6612 28.528 68.6612 25.728C68.6612 22.816 70.2612 21.184 72.7572 21.184C75.2692 21.184 76.8212 22.88 76.8212 25.648V26.128H70.7732C70.8692 27.696 71.5892 28.56 72.8372 28.56C73.7972 28.56 74.4532 28.112 74.7252 27.2H76.8852ZM72.7572 22.864C71.6692 22.864 71.0132 23.552 70.8212 24.848H74.6772C74.4852 23.568 73.8292 22.864 72.7572 22.864ZM81.5642 30V19.12H83.8362L87.8682 25.584L88.6202 27.072L88.5402 19.12H90.6842V30H88.4282L84.3962 23.552L83.6282 22.032L83.7242 30H81.5642ZM96.4294 30.24C93.8854 30.24 92.3174 28.528 92.3174 25.728C92.3174 22.816 93.9334 21.184 96.4294 21.184C98.9574 21.184 100.525 22.912 100.525 25.728C100.525 28.608 98.9094 30.24 96.4294 30.24ZM96.4294 28.544C97.7254 28.544 98.4134 27.552 98.4134 25.728C98.4134 23.904 97.7094 22.88 96.4294 22.88C95.1174 22.88 94.4294 23.888 94.4294 25.728C94.4294 27.536 95.1334 28.544 96.4294 28.544ZM109.505 30L107.953 24.256L107.793 23.248L107.601 24.256L106.065 30H103.521L101.137 21.424H103.329L104.705 27.472L104.913 28.512L105.153 27.472L106.801 21.424H108.929L110.577 27.472L110.785 28.48L110.977 27.472L112.369 21.424H114.465L112.065 30H109.505Z" fill="#101214"/>
<defs>
<clipPath id="clip0_1247_210">
<rect width="175" height="60" fill="white"/>
</clipPath>
</defs>
</svg>
